<svg width="666" height="54" viewBox="0 0 666 54" fill="none" xmlns="http://www.w3.org/2000/svg">
<rect x="626" width="12" height="49" fill="white"/>
<rect width="18" height="10" transform="translate(638)" fill="white"/>
<rect width="18" height="10" transform="translate(638 19)" fill="white"/>
<rect width="10" height="9" transform="translate(656 10)" fill="white"/>
<rect width="10" height="9" transform="translate(646 29)" fill="white"/>
<rect width="10" height="9" transform="translate(656 38)" fill="white"/>
<rect x="578" width="11.7333" height="49" fill="white"/>
<rect width="20.2667" height="11" transform="translate(589.733)" fill="white"/>
<rect width="20.2667" height="11" transform="translate(589.733 19)" fill="white"/>
<rect width="20.2667" height="11" transform="translate(589.733 38)" fill="white"/>
<rect width="11" height="48" transform="translate(521 1)" fill="white"/>
<rect width="10" height="10" transform="translate(552 1)" fill="white"/>
<rect width="10" height="10" transform="translate(542 11)" fill="white"/>
<rect width="10" height="10" transform="translate(542 29)" fill="white"/>
<rect width="10" height="10" transform="translate(532 20)" fill="white"/>
<rect width="10" height="10" transform="translate(552 39)" fill="white"/>
<rect width="18" height="11.2292" transform="translate(475 1)" fill="white"/>
<rect width="18" height="11.2292" transform="translate(475 21.4167)" fill="white"/>
<rect width="10" height="37.7708" transform="translate(465 12.2292)" fill="white"/>
<rect width="10" height="37.7708" transform="translate(493 12.2292)" fill="white"/>
<rect x="414" y="1" width="11" height="49" fill="white"/>
<rect width="19" height="11" transform="translate(425 1)" fill="white"/>
<rect width="19" height="11" transform="translate(425 20)" fill="white"/>
<rect width="19" height="11" transform="translate(425 39)" fill="white"/>
<rect x="356" y="1" width="12" height="49" fill="white"/>
<rect width="18" height="10" transform="translate(368 1)" fill="white"/>
<rect width="18" height="10" transform="translate(368 20)" fill="white"/>
<rect width="10" height="9" transform="translate(386 11)" fill="white"/>
<rect width="10" height="9" transform="translate(376 30)" fill="white"/>
<rect width="10" height="9" transform="translate(386 39)" fill="white"/>
<rect x="299" y="1" width="12" height="49" fill="white"/>
<rect width="18" height="11" transform="translate(311 1)" fill="white"/>
<rect width="18" height="11" transform="translate(311 39)" fill="white"/>
<rect width="18" height="11" transform="translate(311 20)" fill="white"/>
<rect width="9" height="27" transform="translate(329 12)" fill="white"/>
<rect y="5" width="12" height="49" fill="white"/>
<rect width="18" height="11" transform="translate(12 5)" fill="white"/>
<rect width="18" height="11" transform="translate(12 43)" fill="white"/>
<rect width="18" height="11" transform="translate(12 24)" fill="white"/>
<rect width="9" height="27" transform="translate(30 16)" fill="white"/>
<rect x="56" y="5" width="12" height="49" fill="white"/>
<rect width="18" height="10" transform="translate(68 5)" fill="white"/>
<rect width="18" height="10" transform="translate(68 24)" fill="white"/>
<rect width="10" height="9" transform="translate(86 15)" fill="white"/>
<rect width="10" height="9" transform="translate(76 34)" fill="white"/>
<rect width="10" height="9" transform="translate(86 43)" fill="white"/>
<rect x="113" y="4" width="12" height="49" fill="white"/>
<rect width="10" height="29" transform="translate(142 14)" fill="white"/>
<rect width="19" height="9" transform="translate(152 5)" fill="white"/>
<rect width="19" height="9" transform="translate(152 43)" fill="white"/>
<rect width="10" height="10" transform="translate(171 14)" fill="white"/>
<rect width="10" height="10" transform="translate(171 33)" fill="white"/>
<rect width="11" height="48" transform="translate(202 5)" fill="white"/>
<rect width="10" height="10" transform="translate(233 5)" fill="white"/>
<rect width="10" height="10" transform="translate(223 15)" fill="white"/>
<rect width="10" height="10" transform="translate(223 33)" fill="white"/>
<rect width="10" height="10" transform="translate(213 24)" fill="white"/>
<rect width="10" height="10" transform="translate(233 43)" fill="white"/>
</svg>
