<svg width="1224" height="201" viewBox="0 0 1224 201" fill="none" xmlns="http://www.w3.org/2000/svg">
<path d="M295.325 200.638H241.952C238.665 200.638 236 197.979 236 194.698V173.94C236 170.66 238.664 168 241.952 168H295.325C298.611 168 301.276 170.659 301.276 173.94V194.698C301.277 197.979 298.612 200.638 295.325 200.638Z" fill="#F20013"/>
<path d="M59.3252 200.638H5.95156C2.66489 200.638 0 197.979 0 194.698V173.94C0 170.66 2.66446 168 5.95156 168H59.3248C62.6114 168 65.2763 170.659 65.2763 173.94V194.698C65.2768 197.979 62.6119 200.638 59.3252 200.638Z" fill="#FF4B00"/>
<path d="M217.325 200.638H163.952C160.665 200.638 158 197.979 158 194.698V173.94C158 170.66 160.664 168 163.952 168H217.325C220.611 168 223.276 170.659 223.276 173.94V194.698C223.277 197.979 220.612 200.638 217.325 200.638Z" fill="#FF4B00"/>
<path d="M444.325 200.638H390.952C387.665 200.638 385 197.979 385 194.698V173.94C385 170.66 387.664 168 390.952 168H444.325C447.611 168 450.276 170.659 450.276 173.94V194.698C450.277 197.979 447.612 200.638 444.325 200.638Z" fill="#F20013"/>
<path d="M602.325 200.638H548.952C545.665 200.638 543 197.979 543 194.698V173.94C543 170.66 545.664 168 548.952 168H602.325C605.611 168 608.276 170.659 608.276 173.94V194.698C608.277 197.979 605.612 200.638 602.325 200.638Z" fill="#F20013"/>
<path d="M366.325 200.638H312.952C309.665 200.638 307 197.979 307 194.698V173.94C307 170.66 309.664 168 312.952 168H366.325C369.611 168 372.276 170.659 372.276 173.94V194.698C372.277 197.979 369.612 200.638 366.325 200.638Z" fill="#FF4B00"/>
<path d="M524.325 200.638H470.952C467.665 200.638 465 197.979 465 194.698V173.94C465 170.66 467.664 168 470.952 168H524.325C527.611 168 530.276 170.659 530.276 173.94V194.698C530.277 197.979 527.612 200.638 524.325 200.638Z" fill="#FF4B00"/>
<path d="M295.325 158.638H241.952C238.665 158.638 236 155.979 236 152.698V131.94C236 128.66 238.664 126 241.952 126H295.325C298.611 126 301.276 128.659 301.276 131.94V152.698C301.277 155.979 298.612 158.638 295.325 158.638Z" fill="#F20013"/>
<path d="M59.3252 158.638H5.95156C2.66489 158.638 0 155.979 0 152.698V131.94C0 128.66 2.66446 126 5.95156 126H59.3248C62.6114 126 65.2763 128.659 65.2763 131.94V152.698C65.2768 155.979 62.6119 158.638 59.3252 158.638Z" fill="#FF4B00"/>
<path d="M217.325 158.638H163.952C160.665 158.638 158 155.979 158 152.698V131.94C158 128.66 160.664 126 163.952 126H217.325C220.611 126 223.276 128.659 223.276 131.94V152.698C223.277 155.979 220.612 158.638 217.325 158.638Z" fill="#FF4B00"/>
<path d="M444.325 158.638H390.952C387.665 158.638 385 155.979 385 152.698V131.94C385 128.66 387.664 126 390.952 126H444.325C447.611 126 450.276 128.659 450.276 131.94V152.698C450.277 155.979 447.612 158.638 444.325 158.638Z" fill="#F20013"/>
<path d="M602.325 158.638H548.952C545.665 158.638 543 155.979 543 152.698V131.94C543 128.66 545.664 126 548.952 126H602.325C605.611 126 608.276 128.659 608.276 131.94V152.698C608.277 155.979 605.612 158.638 602.325 158.638Z" fill="#F20013"/>
<path d="M366.325 158.638H312.952C309.665 158.638 307 155.979 307 152.698V131.94C307 128.66 309.664 126 312.952 126H366.325C369.611 126 372.276 128.659 372.276 131.94V152.698C372.277 155.979 369.612 158.638 366.325 158.638Z" fill="#FF4B00"/>
<path d="M524.325 158.638H470.952C467.665 158.638 465 155.979 465 152.698V131.94C465 128.66 467.664 126 470.952 126H524.325C527.611 126 530.276 128.659 530.276 131.94V152.698C530.277 155.979 527.612 158.638 524.325 158.638Z" fill="#FF4B00"/>
<path d="M137.325 116.638H83.9516C80.6649 116.638 78 113.979 78 110.698V89.9402C78 86.6598 80.6645 84 83.9516 84H137.325C140.611 84 143.276 86.6594 143.276 89.9402V110.698C143.277 113.979 140.612 116.638 137.325 116.638Z" fill="#F20013"/>
<path d="M295.325 116.638H241.952C238.665 116.638 236 113.979 236 110.698V89.9402C236 86.6598 238.664 84 241.952 84H295.325C298.611 84 301.276 86.6594 301.276 89.9402V110.698C301.277 113.979 298.612 116.638 295.325 116.638Z" fill="#F20013"/>
<path d="M59.3252 116.638H5.95156C2.66489 116.638 0 113.979 0 110.698V89.9402C0 86.6598 2.66446 84 5.95156 84H59.3248C62.6114 84 65.2763 86.6594 65.2763 89.9402V110.698C65.2768 113.979 62.6119 116.638 59.3252 116.638Z" fill="#FF4B00"/>
<path d="M217.325 116.638H163.952C160.665 116.638 158 113.979 158 110.698V89.9402C158 86.6598 160.664 84 163.952 84H217.325C220.611 84 223.276 86.6594 223.276 89.9402V110.698C223.277 113.979 220.612 116.638 217.325 116.638Z" fill="#FF4B00"/>
<path d="M444.325 116.638H390.952C387.665 116.638 385 113.979 385 110.698V89.9402C385 86.6598 387.664 84 390.952 84H444.325C447.611 84 450.276 86.6594 450.276 89.9402V110.698C450.277 113.979 447.612 116.638 444.325 116.638Z" fill="#F20013"/>
<path d="M602.325 116.638H548.952C545.665 116.638 543 113.979 543 110.698V89.9402C543 86.6598 545.664 84 548.952 84H602.325C605.611 84 608.276 86.6594 608.276 89.9402V110.698C608.277 113.979 605.612 116.638 602.325 116.638Z" fill="#F20013"/>
<path d="M366.325 116.638H312.952C309.665 116.638 307 113.979 307 110.698V89.9402C307 86.6598 309.664 84 312.952 84H366.325C369.611 84 372.276 86.6594 372.276 89.9402V110.698C372.277 113.979 369.612 116.638 366.325 116.638Z" fill="#FF4B00"/>
<path d="M524.325 116.638H470.952C467.665 116.638 465 113.979 465 110.698V89.9402C465 86.6598 467.664 84 470.952 84H524.325C527.611 84 530.276 86.6594 530.276 89.9402V110.698C530.277 113.979 527.612 116.638 524.325 116.638Z" fill="#FF4B00"/>
<path d="M137.325 74.6382H83.9516C80.6649 74.6382 78 71.9788 78 68.698V47.9402C78 44.6598 80.6645 42 83.9516 42H137.325C140.611 42 143.276 44.6594 143.276 47.9402V68.698C143.277 71.9792 140.612 74.6382 137.325 74.6382Z" fill="#F20013"/>
<path d="M295.325 74.6382H241.952C238.665 74.6382 236 71.9788 236 68.698V47.9402C236 44.6598 238.664 42 241.952 42H295.325C298.611 42 301.276 44.6594 301.276 47.9402V68.698C301.277 71.9792 298.612 74.6382 295.325 74.6382Z" fill="#F20013"/>
<path d="M59.3252 74.6382H5.95156C2.66489 74.6382 0 71.9788 0 68.698V47.9402C0 44.6598 2.66446 42 5.95156 42H59.3248C62.6114 42 65.2763 44.6594 65.2763 47.9402V68.698C65.2768 71.9792 62.6119 74.6382 59.3252 74.6382Z" fill="#FF4B00"/>
<path d="M217.325 74.6382H163.952C160.665 74.6382 158 71.9788 158 68.698V47.9402C158 44.6598 160.664 42 163.952 42H217.325C220.611 42 223.276 44.6594 223.276 47.9402V68.698C223.277 71.9792 220.612 74.6382 217.325 74.6382Z" fill="#FF4B00"/>
<path d="M444.325 74.6382H390.952C387.665 74.6382 385 71.9788 385 68.698V47.9402C385 44.6598 387.664 42 390.952 42H444.325C447.611 42 450.276 44.6594 450.276 47.9402V68.698C450.277 71.9792 447.612 74.6382 444.325 74.6382Z" fill="#F20013"/>
<path d="M602.325 74.6382H548.952C545.665 74.6382 543 71.9788 543 68.698V47.9402C543 44.6598 545.664 42 548.952 42H602.325C605.611 42 608.276 44.6594 608.276 47.9402V68.698C608.277 71.9792 605.612 74.6382 602.325 74.6382Z" fill="#F20013"/>
<path d="M366.325 74.6382H312.952C309.665 74.6382 307 71.9788 307 68.698V47.9402C307 44.6598 309.664 42 312.952 42H366.325C369.611 42 372.276 44.6594 372.276 47.9402V68.698C372.277 71.9792 369.612 74.6382 366.325 74.6382Z" fill="#FF4B00"/>
<path d="M524.325 74.6382H470.952C467.665 74.6382 465 71.9788 465 68.698V47.9402C465 44.6598 467.664 42 470.952 42H524.325C527.611 42 530.276 44.6594 530.276 47.9402V68.698C530.277 71.9792 527.612 74.6382 524.325 74.6382Z" fill="#FF4B00"/>
<path d="M137.325 32.6382H83.9516C80.6649 32.6382 78 29.9788 78 26.698V5.94019C78 2.65981 80.6645 0 83.9516 0H137.325C140.611 0 143.276 2.65937 143.276 5.94019V26.698C143.277 29.9792 140.612 32.6382 137.325 32.6382Z" fill="#F20013"/>
<path d="M295.325 32.6382H241.952C238.665 32.6382 236 29.9788 236 26.698V5.94019C236 2.65981 238.664 0 241.952 0H295.325C298.611 0 301.276 2.65937 301.276 5.94019V26.698C301.277 29.9792 298.612 32.6382 295.325 32.6382Z" fill="#F20013"/>
<path d="M59.3252 32.6382H5.95156C2.66489 32.6382 0 29.9788 0 26.698V5.94019C0 2.65981 2.66446 0 5.95156 0H59.3248C62.6114 0 65.2763 2.65937 65.2763 5.94019V26.698C65.2768 29.9792 62.6119 32.6382 59.3252 32.6382Z" fill="#FF4B00"/>
<path d="M217.325 32.6382H163.952C160.665 32.6382 158 29.9788 158 26.698V5.94019C158 2.65981 160.664 0 163.952 0H217.325C220.611 0 223.276 2.65937 223.276 5.94019V26.698C223.277 29.9792 220.612 32.6382 217.325 32.6382Z" fill="#FF4B00"/>
<path d="M444.325 32.6382H390.952C387.665 32.6382 385 29.9788 385 26.698V5.94019C385 2.65981 387.664 0 390.952 0H444.325C447.611 0 450.276 2.65937 450.276 5.94019V26.698C450.277 29.9792 447.612 32.6382 444.325 32.6382Z" fill="#F20013"/>
<path d="M602.325 32.6382H548.952C545.665 32.6382 543 29.9788 543 26.698V5.94019C543 2.65981 545.664 0 548.952 0H602.325C605.611 0 608.276 2.65937 608.276 5.94019V26.698C608.277 29.9792 605.612 32.6382 602.325 32.6382Z" fill="#F20013"/>
<path d="M366.325 32.6382H312.952C309.665 32.6382 307 29.9788 307 26.698V5.94019C307 2.65981 309.664 0 312.952 0H366.325C369.611 0 372.276 2.65937 372.276 5.94019V26.698C372.277 29.9792 369.612 32.6382 366.325 32.6382Z" fill="#FF4B00"/>
<path d="M524.325 32.6382H470.952C467.665 32.6382 465 29.9788 465 26.698V5.94019C465 2.65981 467.664 0 470.952 0H524.325C527.611 0 530.276 2.65937 530.276 5.94019V26.698C530.277 29.9792 527.612 32.6382 524.325 32.6382Z" fill="#FF4B00"/>
<path d="M1059.33 200.638H1005.95C1002.66 200.638 1000 197.979 1000 194.698V173.94C1000 170.66 1002.66 168 1005.95 168H1059.32C1062.61 168 1065.28 170.659 1065.28 173.94V194.698C1065.28 197.979 1062.61 200.638 1059.33 200.638Z" fill="#F20013"/>
<path d="M1217.33 200.638H1163.95C1160.66 200.638 1158 197.979 1158 194.698V173.94C1158 170.66 1160.66 168 1163.95 168H1217.32C1220.61 168 1223.28 170.659 1223.28 173.94V194.698C1223.28 197.979 1220.61 200.638 1217.33 200.638Z" fill="#F20013"/>
<path d="M981.325 200.638H927.952C924.665 200.638 922 197.979 922 194.698V173.94C922 170.66 924.664 168 927.952 168H981.325C984.611 168 987.276 170.659 987.276 173.94V194.698C987.277 197.979 984.612 200.638 981.325 200.638Z" fill="#FF4B00"/>
<path d="M1139.33 200.638H1085.95C1082.66 200.638 1080 197.979 1080 194.698V173.94C1080 170.66 1082.66 168 1085.95 168H1139.32C1142.61 168 1145.28 170.659 1145.28 173.94V194.698C1145.28 197.979 1142.61 200.638 1139.33 200.638Z" fill="#FF4B00"/>
<path d="M910.325 158.638H856.952C853.665 158.638 851 155.979 851 152.698V131.94C851 128.66 853.664 126 856.952 126H910.325C913.611 126 916.276 128.659 916.276 131.94V152.698C916.277 155.979 913.612 158.638 910.325 158.638Z" fill="#F20013"/>
<path d="M674.325 158.638H620.952C617.665 158.638 615 155.979 615 152.698V131.94C615 128.66 617.664 126 620.952 126H674.325C677.611 126 680.276 128.659 680.276 131.94V152.698C680.277 155.979 677.612 158.638 674.325 158.638Z" fill="#FF4B00"/>
<path d="M832.325 158.638H778.952C775.665 158.638 773 155.979 773 152.698V131.94C773 128.66 775.664 126 778.952 126H832.325C835.611 126 838.276 128.659 838.276 131.94V152.698C838.277 155.979 835.612 158.638 832.325 158.638Z" fill="#FF4B00"/>
<path d="M1059.33 158.638H1005.95C1002.66 158.638 1000 155.979 1000 152.698V131.94C1000 128.66 1002.66 126 1005.95 126H1059.32C1062.61 126 1065.28 128.659 1065.28 131.94V152.698C1065.28 155.979 1062.61 158.638 1059.33 158.638Z" fill="#F20013"/>
<path d="M1217.33 158.638H1163.95C1160.66 158.638 1158 155.979 1158 152.698V131.94C1158 128.66 1160.66 126 1163.95 126H1217.32C1220.61 126 1223.28 128.659 1223.28 131.94V152.698C1223.28 155.979 1220.61 158.638 1217.33 158.638Z" fill="#F20013"/>
<path d="M981.325 158.638H927.952C924.665 158.638 922 155.979 922 152.698V131.94C922 128.66 924.664 126 927.952 126H981.325C984.611 126 987.276 128.659 987.276 131.94V152.698C987.277 155.979 984.612 158.638 981.325 158.638Z" fill="#FF4B00"/>
<path d="M1139.33 158.638H1085.95C1082.66 158.638 1080 155.979 1080 152.698V131.94C1080 128.66 1082.66 126 1085.95 126H1139.32C1142.61 126 1145.28 128.659 1145.28 131.94V152.698C1145.28 155.979 1142.61 158.638 1139.33 158.638Z" fill="#FF4B00"/>
<path d="M752.325 116.638H698.952C695.665 116.638 693 113.979 693 110.698V89.9402C693 86.6598 695.664 84 698.952 84H752.325C755.611 84 758.276 86.6594 758.276 89.9402V110.698C758.277 113.979 755.612 116.638 752.325 116.638Z" fill="#F20013"/>
<path d="M910.325 116.638H856.952C853.665 116.638 851 113.979 851 110.698V89.9402C851 86.6598 853.664 84 856.952 84H910.325C913.611 84 916.276 86.6594 916.276 89.9402V110.698C916.277 113.979 913.612 116.638 910.325 116.638Z" fill="#F20013"/>
<path d="M674.325 116.638H620.952C617.665 116.638 615 113.979 615 110.698V89.9402C615 86.6598 617.664 84 620.952 84H674.325C677.611 84 680.276 86.6594 680.276 89.9402V110.698C680.277 113.979 677.612 116.638 674.325 116.638Z" fill="#FF4B00"/>
<path d="M832.325 116.638H778.952C775.665 116.638 773 113.979 773 110.698V89.9402C773 86.6598 775.664 84 778.952 84H832.325C835.611 84 838.276 86.6594 838.276 89.9402V110.698C838.277 113.979 835.612 116.638 832.325 116.638Z" fill="#FF4B00"/>
<path d="M1059.33 116.638H1005.95C1002.66 116.638 1000 113.979 1000 110.698V89.9402C1000 86.6598 1002.66 84 1005.95 84H1059.32C1062.61 84 1065.28 86.6594 1065.28 89.9402V110.698C1065.28 113.979 1062.61 116.638 1059.33 116.638Z" fill="#F20013"/>
<path d="M1217.33 116.638H1163.95C1160.66 116.638 1158 113.979 1158 110.698V89.9402C1158 86.6598 1160.66 84 1163.95 84H1217.32C1220.61 84 1223.28 86.6594 1223.28 89.9402V110.698C1223.28 113.979 1220.61 116.638 1217.33 116.638Z" fill="#F20013"/>
<path d="M981.325 116.638H927.952C924.665 116.638 922 113.979 922 110.698V89.9402C922 86.6598 924.664 84 927.952 84H981.325C984.611 84 987.276 86.6594 987.276 89.9402V110.698C987.277 113.979 984.612 116.638 981.325 116.638Z" fill="#FF4B00"/>
<path d="M1139.33 116.638H1085.95C1082.66 116.638 1080 113.979 1080 110.698V89.9402C1080 86.6598 1082.66 84 1085.95 84H1139.32C1142.61 84 1145.28 86.6594 1145.28 89.9402V110.698C1145.28 113.979 1142.61 116.638 1139.33 116.638Z" fill="#FF4B00"/>
<path d="M752.325 74.6382H698.952C695.665 74.6382 693 71.9788 693 68.698V47.9402C693 44.6598 695.664 42 698.952 42H752.325C755.611 42 758.276 44.6594 758.276 47.9402V68.698C758.277 71.9792 755.612 74.6382 752.325 74.6382Z" fill="#F20013"/>
<path d="M910.325 74.6382H856.952C853.665 74.6382 851 71.9788 851 68.698V47.9402C851 44.6598 853.664 42 856.952 42H910.325C913.611 42 916.276 44.6594 916.276 47.9402V68.698C916.277 71.9792 913.612 74.6382 910.325 74.6382Z" fill="#F20013"/>
<path d="M674.325 74.6382H620.952C617.665 74.6382 615 71.9788 615 68.698V47.9402C615 44.6598 617.664 42 620.952 42H674.325C677.611 42 680.276 44.6594 680.276 47.9402V68.698C680.277 71.9792 677.612 74.6382 674.325 74.6382Z" fill="#FF4B00"/>
<path d="M832.325 74.6382H778.952C775.665 74.6382 773 71.9788 773 68.698V47.9402C773 44.6598 775.664 42 778.952 42H832.325C835.611 42 838.276 44.6594 838.276 47.9402V68.698C838.277 71.9792 835.612 74.6382 832.325 74.6382Z" fill="#FF4B00"/>
<path d="M1059.33 74.6382H1005.95C1002.66 74.6382 1000 71.9788 1000 68.698V47.9402C1000 44.6598 1002.66 42 1005.95 42H1059.32C1062.61 42 1065.28 44.6594 1065.28 47.9402V68.698C1065.28 71.9792 1062.61 74.6382 1059.33 74.6382Z" fill="#F20013"/>
<path d="M1217.33 74.6382H1163.95C1160.66 74.6382 1158 71.9788 1158 68.698V47.9402C1158 44.6598 1160.66 42 1163.95 42H1217.32C1220.61 42 1223.28 44.6594 1223.28 47.9402V68.698C1223.28 71.9792 1220.61 74.6382 1217.33 74.6382Z" fill="#F20013"/>
<path d="M981.325 74.6382H927.952C924.665 74.6382 922 71.9788 922 68.698V47.9402C922 44.6598 924.664 42 927.952 42H981.325C984.611 42 987.276 44.6594 987.276 47.9402V68.698C987.277 71.9792 984.612 74.6382 981.325 74.6382Z" fill="#FF4B00"/>
<path d="M1139.33 74.6382H1085.95C1082.66 74.6382 1080 71.9788 1080 68.698V47.9402C1080 44.6598 1082.66 42 1085.95 42H1139.32C1142.61 42 1145.28 44.6594 1145.28 47.9402V68.698C1145.28 71.9792 1142.61 74.6382 1139.33 74.6382Z" fill="#FF4B00"/>
<path d="M752.325 32.6382H698.952C695.665 32.6382 693 29.9788 693 26.698V5.94019C693 2.65981 695.664 0 698.952 0H752.325C755.611 0 758.276 2.65937 758.276 5.94019V26.698C758.277 29.9792 755.612 32.6382 752.325 32.6382Z" fill="#F20013"/>
<path d="M910.325 32.6382H856.952C853.665 32.6382 851 29.9788 851 26.698V5.94019C851 2.65981 853.664 0 856.952 0H910.325C913.611 0 916.276 2.65937 916.276 5.94019V26.698C916.277 29.9792 913.612 32.6382 910.325 32.6382Z" fill="#F20013"/>
<path d="M674.325 32.6382H620.952C617.665 32.6382 615 29.9788 615 26.698V5.94019C615 2.65981 617.664 0 620.952 0H674.325C677.611 0 680.276 2.65937 680.276 5.94019V26.698C680.277 29.9792 677.612 32.6382 674.325 32.6382Z" fill="#FF4B00"/>
<path d="M832.325 32.6382H778.952C775.665 32.6382 773 29.9788 773 26.698V5.94019C773 2.65981 775.664 0 778.952 0H832.325C835.611 0 838.276 2.65937 838.276 5.94019V26.698C838.277 29.9792 835.612 32.6382 832.325 32.6382Z" fill="#FF4B00"/>
<path d="M1059.33 32.6382H1005.95C1002.66 32.6382 1000 29.9788 1000 26.698V5.94019C1000 2.65981 1002.66 0 1005.95 0H1059.32C1062.61 0 1065.28 2.65937 1065.28 5.94019V26.698C1065.28 29.9792 1062.61 32.6382 1059.33 32.6382Z" fill="#F20013"/>
<path d="M1217.33 32.6382H1163.95C1160.66 32.6382 1158 29.9788 1158 26.698V5.94019C1158 2.65981 1160.66 0 1163.95 0H1217.32C1220.61 0 1223.28 2.65937 1223.28 5.94019V26.698C1223.28 29.9792 1220.61 32.6382 1217.33 32.6382Z" fill="#F20013"/>
<path d="M981.325 32.6382H927.952C924.665 32.6382 922 29.9788 922 26.698V5.94019C922 2.65981 924.664 0 927.952 0H981.325C984.611 0 987.276 2.65937 987.276 5.94019V26.698C987.277 29.9792 984.612 32.6382 981.325 32.6382Z" fill="#FF4B00"/>
<path d="M1139.33 32.6382H1085.95C1082.66 32.6382 1080 29.9788 1080 26.698V5.94019C1080 2.65981 1082.66 0 1085.95 0H1139.32C1142.61 0 1145.28 2.65937 1145.28 5.94019V26.698C1145.28 29.9792 1142.61 32.6382 1139.33 32.6382Z" fill="#FF4B00"/>
</svg>
