<svg width="354" height="57.8" viewBox="0 0 588 96" fill="none" xmlns="http://www.w3.org/2000/svg">
<rect x="552.685" width="10.5946" height="43.2613" fill="white"/>
<rect width="15.8919" height="8.82883" transform="translate(563.279)" fill="white"/>
<rect width="15.8919" height="8.82883" transform="translate(563.279 16.7747)" fill="white"/>
<rect width="8.82883" height="7.94595" transform="translate(579.171 8.82886)" fill="white"/>
<rect width="8.82883" height="7.94595" transform="translate(570.342 25.6035)" fill="white"/>
<rect width="8.82883" height="7.94595" transform="translate(579.171 33.5496)" fill="white"/>
<rect x="510.306" width="10.3592" height="43.2613" fill="white"/>
<rect width="17.8931" height="9.71171" transform="translate(520.665)" fill="white"/>
<rect width="17.8931" height="9.71171" transform="translate(520.665 16.7747)" fill="white"/>
<rect width="17.8931" height="9.71171" transform="translate(520.665 33.5496)" fill="white"/>
<rect width="9.71171" height="42.3784" transform="translate(459.982 0.882812)" fill="white"/>
<rect width="8.82883" height="8.82883" transform="translate(487.351 0.882812)" fill="white"/>
<rect width="8.82883" height="8.82883" transform="translate(478.523 9.71167)" fill="white"/>
<rect width="8.82883" height="8.82883" transform="translate(478.523 25.6035)" fill="white"/>
<rect width="8.82883" height="8.82883" transform="translate(469.694 17.6577)" fill="white"/>
<rect width="8.82883" height="8.82883" transform="translate(487.351 34.4324)" fill="white"/>
<rect width="15.8919" height="9.91404" transform="translate(419.369 0.882812)" fill="white"/>
<rect width="15.8919" height="9.91404" transform="translate(419.369 18.9084)" fill="white"/>
<rect width="8.82883" height="33.3472" transform="translate(410.541 10.7969)" fill="white"/>
<rect width="8.82883" height="33.3472" transform="translate(435.261 10.7969)" fill="white"/>
<rect x="365.514" y="0.882812" width="9.71171" height="43.2613" fill="white"/>
<rect width="16.7748" height="9.71171" transform="translate(375.225 0.882812)" fill="white"/>
<rect width="16.7748" height="9.71171" transform="translate(375.225 17.6577)" fill="white"/>
<rect width="16.7748" height="9.71171" transform="translate(375.225 34.4324)" fill="white"/>
<rect x="314.306" y="0.882812" width="10.5946" height="43.2613" fill="white"/>
<rect width="15.8919" height="8.82883" transform="translate(324.901 0.882812)" fill="white"/>
<rect width="15.8919" height="8.82883" transform="translate(324.901 17.6577)" fill="white"/>
<rect width="8.82883" height="7.94595" transform="translate(340.793 9.71167)" fill="white"/>
<rect width="8.82883" height="7.94595" transform="translate(331.964 26.4866)" fill="white"/>
<rect width="8.82883" height="7.94595" transform="translate(340.793 34.4324)" fill="white"/>
<rect x="263.982" y="0.882812" width="10.5946" height="43.2613" fill="white"/>
<rect width="15.8919" height="9.71171" transform="translate(274.577 0.882812)" fill="white"/>
<rect width="15.8919" height="9.71171" transform="translate(274.577 34.4324)" fill="white"/>
<rect width="15.8919" height="9.71171" transform="translate(274.577 17.6577)" fill="white"/>
<rect width="7.94595" height="23.8378" transform="translate(290.468 10.5945)" fill="white"/>
<rect y="4.41431" width="10.5946" height="43.2613" fill="white"/>
<rect width="15.8919" height="9.71171" transform="translate(10.5946 4.41431)" fill="white"/>
<rect width="15.8919" height="9.71171" transform="translate(10.5946 37.9639)" fill="white"/>
<rect width="15.8919" height="9.71171" transform="translate(10.5946 21.1892)" fill="white"/>
<rect width="7.94595" height="23.8378" transform="translate(26.4865 14.1262)" fill="white"/>
<rect x="49.4414" y="4.41431" width="10.5946" height="43.2613" fill="white"/>
<rect width="15.8919" height="8.82883" transform="translate(60.036 4.41431)" fill="white"/>
<rect width="15.8919" height="8.82883" transform="translate(60.036 21.1892)" fill="white"/>
<rect width="8.82883" height="7.94595" transform="translate(75.9279 13.2432)" fill="white"/>
<rect width="8.82883" height="7.94595" transform="translate(67.0991 30.0181)" fill="white"/>
<rect width="8.82883" height="7.94595" transform="translate(75.9279 37.9639)" fill="white"/>
<rect x="99.7657" y="3.53149" width="10.5946" height="43.2613" fill="white"/>
<rect width="8.82883" height="25.6036" transform="translate(125.369 12.3604)" fill="white"/>
<rect width="16.7748" height="7.94595" transform="translate(134.198 4.41431)" fill="white"/>
<rect width="16.7748" height="7.94595" transform="translate(134.198 37.9639)" fill="white"/>
<rect width="8.82883" height="8.82883" transform="translate(150.973 12.3604)" fill="white"/>
<rect width="8.82883" height="8.82883" transform="translate(150.973 29.1353)" fill="white"/>
<rect width="9.71171" height="42.3784" transform="translate(178.342 4.41431)" fill="white"/>
<rect width="8.82883" height="8.82883" transform="translate(205.712 4.41431)" fill="white"/>
<rect width="8.82883" height="8.82883" transform="translate(196.883 13.2432)" fill="white"/>
<rect width="8.82883" height="8.82883" transform="translate(196.883 29.1353)" fill="white"/>
<rect width="8.82883" height="8.82883" transform="translate(188.054 21.1892)" fill="white"/>
<rect width="8.82883" height="8.82883" transform="translate(205.712 37.9639)" fill="white"/>
<path d="M328.009 66.0444C330.77 66.0469 333.011 63.8104 333.014 61.049C333.016 58.2876 330.78 56.0469 328.018 56.0444C325.257 56.0419 323.016 58.2784 323.014 61.0398C323.011 63.8012 325.248 66.0419 328.009 66.0444Z" fill="white" stroke="white" stroke-width="2" stroke-miterlimit="10" stroke-linecap="round" stroke-linejoin="round"/>
<rect x="267" y="85" width="60" height="11" rx="5.5" fill="white"/>
</svg>
