<svg width="659" height="60" viewBox="0 0 659 60" fill="none" xmlns="http://www.w3.org/2000/svg">
<path d="M48.16 18.336H39.712V8.928C39.712 7.648 39.52 6.848 39.136 6.528C38.816 6.144 38.016 5.952 36.736 5.952H12.064C10.848 5.952 10.048 6.144 9.664 6.528C9.28 6.848 9.088 7.648 9.088 8.928V51.36C9.088 52.64 9.28 53.472 9.664 53.856C10.048 54.176 10.848 54.336 12.064 54.336H36.832C38.048 54.336 38.848 54.176 39.232 53.856C39.616 53.472 39.808 52.64 39.808 51.36V34.944H23.584V29.28H48.16V52.416C48.16 57.472 45.632 60 40.576 60H8.224C3.168 60 0.64 57.472 0.64 52.416V7.872C0.64 2.816 3.168 0.287996 8.224 0.287996H40.576C45.632 0.287996 48.16 2.816 48.16 7.872V18.336ZM74.3718 42.528H102.788L88.4838 6.048L74.3718 42.528ZM109.604 60L104.996 48.192H72.1638L67.6518 60H59.2038L82.4358 0.287996H94.6278L117.956 60H109.604ZM138.177 60H130.881V0.287996H140.001L162.177 39.744L185.313 0.287996H194.433V60H187.137V11.04L166.113 47.04H158.433L138.177 11.04V60ZM222.207 54.336H255.615V60H213.663V0.287996H254.271V5.952H222.207V26.592H250.335V32.256H222.207V54.336ZM336.67 31.872V8.928C336.67 7.648 336.478 6.848 336.094 6.528C335.71 6.144 334.91 5.952 333.694 5.952H304.702V34.848H333.694C334.91 34.848 335.71 34.656 336.094 34.272C336.478 33.888 336.67 33.088 336.67 31.872ZM296.35 0.287996H337.342C342.398 0.287996 344.926 2.816 344.926 7.872V32.928C344.926 37.984 342.398 40.512 337.342 40.512H304.702V60H296.35V0.287996ZM369.216 42.528H397.632L383.328 6.048L369.216 42.528ZM404.448 60L399.84 48.192H367.008L362.496 60H354.048L377.28 0.287996H389.472L412.8 60H404.448ZM433.117 0.287996V51.36C433.117 52.64 433.277 53.472 433.597 53.856C433.981 54.176 434.813 54.336 436.093 54.336H461.821C463.101 54.336 463.901 54.176 464.221 53.856C464.605 53.472 464.797 52.64 464.797 51.36V0.287996H473.053V52.416C473.053 57.472 470.525 60 465.469 60H432.349C427.293 60 424.765 57.472 424.765 52.416V0.287996H433.117ZM527.832 51.36V35.712C527.832 34.496 527.64 33.696 527.256 33.312C526.936 32.928 526.136 32.736 524.856 32.736H496.92C491.864 32.736 489.336 30.208 489.336 25.152V7.872C489.336 2.816 491.864 0.287996 496.92 0.287996H528.312C533.368 0.287996 535.896 2.816 535.896 7.872V17.376H527.448V8.928C527.448 7.648 527.256 6.848 526.872 6.528C526.552 6.144 525.752 5.952 524.472 5.952H500.76C499.544 5.952 498.744 6.144 498.36 6.528C497.976 6.848 497.784 7.648 497.784 8.928V24.096C497.784 25.376 497.976 26.208 498.36 26.592C498.744 26.912 499.544 27.072 500.76 27.072H528.6C533.656 27.072 536.184 29.6 536.184 34.656V52.416C536.184 57.472 533.656 60 528.6 60H497.112C492.056 60 489.528 57.472 489.528 52.416V42.912H497.976V51.36C497.976 52.64 498.168 53.472 498.552 53.856C498.936 54.176 499.736 54.336 500.952 54.336H524.856C526.136 54.336 526.936 54.176 527.256 53.856C527.64 53.472 527.832 52.64 527.832 51.36ZM562.05 54.336H595.458V60H553.506V0.287996H594.114V5.952H562.05V26.592H590.178V32.256H562.05V54.336ZM649.882 51.36V8.928C649.882 7.648 649.69 6.848 649.306 6.528C648.986 6.144 648.186 5.952 646.906 5.952H618.298V54.336H646.906C648.186 54.336 648.986 54.176 649.306 53.856C649.69 53.472 649.882 52.64 649.882 51.36ZM609.85 0.287996H650.746C655.802 0.287996 658.33 2.816 658.33 7.872V52.416C658.33 57.472 655.802 60 650.746 60H609.85V0.287996Z" fill="white"/>
</svg>
