<svg width="756" height="156" viewBox="0 0 756 156" fill="none" xmlns="http://www.w3.org/2000/svg">
<path d="M56.16 59.336H47.712V49.928C47.712 48.648 47.52 47.848 47.136 47.528C46.816 47.144 46.016 46.952 44.736 46.952H20.064C18.848 46.952 18.048 47.144 17.664 47.528C17.28 47.848 17.088 48.648 17.088 49.928V92.36C17.088 93.64 17.28 94.472 17.664 94.856C18.048 95.176 18.848 95.336 20.064 95.336H44.832C46.048 95.336 46.848 95.176 47.232 94.856C47.616 94.472 47.808 93.64 47.808 92.36V75.944H31.584V70.28H56.16V93.416C56.16 98.472 53.632 101 48.576 101H16.224C11.168 101 8.64 98.472 8.64 93.416V48.872C8.64 43.816 11.168 41.288 16.224 41.288H48.576C53.632 41.288 56.16 43.816 56.16 48.872V59.336ZM82.3718 83.528H110.788L96.4838 47.048L82.3718 83.528ZM117.604 101L112.996 89.192H80.1638L75.6518 101H67.2038L90.4358 41.288H102.628L125.956 101H117.604ZM146.177 101H138.881V41.288H148.001L170.177 80.744L193.313 41.288H202.433V101H195.137V52.04L174.113 88.04H166.433L146.177 52.04V101ZM230.207 95.336H263.615V101H221.663V41.288H262.271V46.952H230.207V67.592H258.335V73.256H230.207V95.336Z" fill="white"/>
<g clip-path="url(#clip0_96_2727)">
<path d="M314.375 45.8687C312.847 44.3415 312.847 41.865 314.375 40.3378C315.902 38.8106 318.378 38.8106 319.905 40.3378L331.656 52.0868C333.183 53.6139 333.183 56.0905 331.656 57.6177C330.128 59.1449 327.652 59.1449 326.125 57.6177L314.375 45.8687ZM358.342 57.6189C356.815 56.0917 356.815 53.6139 358.342 52.088L370.092 40.339C371.62 38.8118 374.096 38.8118 375.623 40.339C377.151 41.8662 377.151 44.3427 375.623 45.8699L363.873 57.6202C362.345 59.1449 359.868 59.1461 358.342 57.6189ZM344.912 72.7205C330.939 72.7205 318.469 81.809 313.147 95.878C312.909 96.5068 312.963 97.2312 313.292 97.8041C313.621 98.3769 314.181 98.7224 314.78 98.7236L375.218 98.8081H375.221C375.816 98.8081 376.371 98.4689 376.701 97.9022C377.032 97.3368 377.092 96.6186 376.865 95.9886C371.726 81.8538 359.185 72.7205 344.912 72.7205ZM321.26 95.3648L318.192 95.3623C317.658 95.3611 317.163 95.1113 316.868 94.6987C316.576 94.285 316.528 93.7618 316.739 93.3083C317.402 91.8867 318.203 90.5434 319.1 89.271H321.26V95.3648ZM358.844 79.4331C362.125 80.8671 365.078 82.8044 367.559 85.1678H358.844V79.4331ZM337.843 95.3834L325.684 95.3685V89.2697H337.843V95.3834ZM337.843 85.1703H325.684V82.6652C329.206 80.124 333.351 78.2899 337.843 77.343V85.1703ZM354.422 95.4021L342.263 95.3884V89.2685H354.422V95.4021ZM354.422 85.1703H342.263V76.7093C343.167 76.6372 344.077 76.5913 344.996 76.5913C348.272 76.5913 351.442 77.0374 354.422 77.8625V85.1703ZM371.002 95.422L358.844 95.4083V89.271H371.002V95.422Z" fill="white"/>
</g>
<path d="M485.2 48.872V93.416C485.2 98.472 482.672 101 477.616 101H446.224C441.168 101 438.64 98.472 438.64 93.416V48.872C438.64 43.816 441.168 41.288 446.224 41.288H477.616C482.672 41.288 485.2 43.816 485.2 48.872ZM476.944 92.36V49.928C476.944 48.648 476.752 47.848 476.368 47.528C476.048 47.144 475.248 46.952 473.968 46.952H449.968C448.688 46.952 447.856 47.144 447.472 47.528C447.152 47.848 446.992 48.648 446.992 49.928V92.36C446.992 93.64 447.152 94.472 447.472 94.856C447.856 95.176 448.688 95.336 449.968 95.336H473.968C475.248 95.336 476.048 95.176 476.368 94.856C476.752 94.472 476.944 93.64 476.944 92.36ZM547.892 41.288H556.244L532.916 101H520.724L497.492 41.288H505.94L526.772 95.24L547.892 41.288ZM578.082 95.336H611.49V101H569.538V41.288H610.146V46.952H578.082V67.592H606.21V73.256H578.082V95.336ZM634.233 46.952V73.928H663.321C664.601 73.928 665.401 73.736 665.721 73.352C666.105 72.968 666.297 72.168 666.297 70.952V49.928C666.297 48.648 666.105 47.848 665.721 47.528C665.401 47.144 664.601 46.952 663.321 46.952H634.233ZM634.233 79.592V101H625.881V41.288H666.969C672.025 41.288 674.553 43.816 674.553 48.872V72.008C674.553 77.064 672.025 79.592 666.969 79.592H661.305L674.745 101H666.105L652.761 79.592H634.233Z" fill="white"/>
<path d="M692 101.739C689.496 101.739 686.852 100.626 685.043 98.8175C683.235 97.0088 682.261 94.5045 682.261 92.0001C682.261 89.4958 683.374 86.9914 685.043 85.0436C686.852 83.2349 689.356 82.261 692 82.261C694.504 82.261 697.009 83.374 698.817 85.0436C700.626 86.8523 701.739 89.3566 701.739 92.0001C701.739 94.5045 700.626 97.0088 698.817 98.8175C697.009 100.626 694.504 101.739 692 101.739Z" fill="#FF4B00"/>
<defs>
<clipPath id="clip0_96_2727">
<rect width="64" height="64" fill="white" transform="translate(313 37)"/>
</clipPath>
</defs>
</svg>
