<svg width="15" height="15" viewBox="0 0 30 30" fill="none" xmlns="http://www.w3.org/2000/svg">
<path d="M14.7602 7.23566L14.749 7.24685C14.6599 7.14455 14.5681 7.04384 14.4706 6.94633C13.3576 5.8333 11.848 5.20801 10.2739 5.20801C8.69986 5.20801 7.19027 5.8333 6.07725 6.94633C4.96422 8.05935 4.33893 9.56894 4.33893 11.143C4.33893 12.7171 4.96422 14.2266 6.07725 15.3397C6.17476 15.4372 6.27547 15.529 6.37777 15.618L6.36659 15.6292L14.7602 24.0226L23.1535 15.6292C24.2666 14.5162 24.8919 13.0066 24.8919 11.4325C24.8919 9.85845 24.2666 8.34884 23.1536 7.23578C22.6025 6.68465 21.9482 6.24747 21.2282 5.94919C20.5081 5.65092 19.7363 5.49739 18.9569 5.49738C17.3828 5.49736 15.8732 6.12264 14.7602 7.23566Z" fill="white"/>
<path d="M5.79456 15.6221C4.62813 14.4298 3.97905 12.8255 3.98819 11.1576C3.99734 9.4896 4.66398 7.89255 5.84341 6.71309C7.02284 5.53363 8.61987 4.86695 10.2878 4.85776C11.9558 4.84857 13.5601 5.49762 14.7524 6.66401L14.7684 6.68023C16.003 5.5931 17.6121 5.02891 19.2553 5.10702C20.8985 5.18512 22.4468 5.8994 23.5727 7.09872C24.6986 8.29805 25.3138 9.88835 25.2882 11.5332C25.2625 13.178 24.5979 14.7483 23.4351 15.9119L21.2905 18.0562C21.2156 18.1312 21.114 18.1733 21.008 18.1733C20.9021 18.1733 20.8005 18.1312 20.7255 18.0562C20.6506 17.9813 20.6085 17.8797 20.6085 17.7738C20.6085 17.6678 20.6506 17.5662 20.7255 17.4913L22.8699 15.3467C23.3933 14.8348 23.81 14.2243 24.0959 13.5503C24.3817 12.8763 24.531 12.1523 24.5351 11.4202C24.5392 10.6881 24.3981 9.96248 24.1198 9.28532C23.8416 8.60816 23.4318 7.99292 22.9142 7.47522C22.3965 6.95752 21.7813 6.54764 21.1042 6.26933C20.4271 5.99101 19.7015 5.84978 18.9694 5.85381C18.2373 5.85784 17.5133 6.00705 16.8392 6.29281C16.1652 6.57856 15.5546 6.99519 15.0427 7.51856C15.0031 7.55802 14.9561 7.58915 14.9043 7.61014C14.8525 7.63112 14.7971 7.64152 14.7412 7.64073C14.6861 7.64002 14.6316 7.62805 14.5812 7.60555C14.5308 7.58305 14.4856 7.55049 14.4482 7.50988C14.3647 7.41442 14.279 7.32011 14.1881 7.22899C13.6741 6.71499 13.0639 6.30726 12.3923 6.02909C11.7207 5.75092 11.0009 5.60775 10.274 5.60776C8.8059 5.60778 7.39795 6.191 6.35988 7.2291C5.3218 8.26721 4.73863 9.67517 4.73865 11.1433C4.73867 12.6113 5.32189 14.0193 6.35999 15.0574C6.45134 15.1487 6.54497 15.2339 6.64042 15.3172C6.67543 15.3478 6.70487 15.3842 6.72743 15.4248L14.7602 23.4578L17.377 20.8407C17.4524 20.7679 17.5533 20.7276 17.6581 20.7285C17.7629 20.7294 17.8631 20.7714 17.9372 20.8455C18.0114 20.9195 18.0534 21.0198 18.0543 21.1246C18.0553 21.2293 18.015 21.3303 17.9422 21.4057L15.042 24.3059C14.967 24.3808 14.8653 24.4228 14.7594 24.4228C14.6534 24.4228 14.5518 24.3808 14.4768 24.3059L6.08413 15.9119C6.06359 15.8911 6.04536 15.8681 6.02977 15.8434C5.94985 15.7724 5.87129 15.6991 5.79456 15.6221ZM19.5024 19.845L19.8639 19.4833C19.901 19.4462 19.9304 19.4021 19.9505 19.3536C19.9706 19.3051 19.9809 19.2531 19.9809 19.2007C19.9808 19.1482 19.9705 19.0962 19.9504 19.0477C19.9303 18.9992 19.9008 18.9552 19.8637 18.9181C19.8266 18.881 19.7825 18.8516 19.734 18.8315C19.6855 18.8115 19.6335 18.8011 19.581 18.8012C19.5286 18.8012 19.4766 18.8115 19.4281 18.8316C19.3796 18.8517 19.3356 18.8812 19.2985 18.9183L18.937 19.2801C18.8621 19.355 18.82 19.4567 18.82 19.5627C18.8201 19.6687 18.8622 19.7703 18.9372 19.8453C19.0122 19.9202 19.1139 19.9622 19.2199 19.9622C19.3259 19.9622 19.4275 19.92 19.5024 19.845Z" fill="#526361"/>
</svg>
