<svg width="239" height="21" viewBox="0 0 239 21" fill="none" xmlns="http://www.w3.org/2000/svg">
<path d="M11.344 2.072H13.456V17H11.344V10.232H2.512V17H0.4V2.072H2.512V8.816H11.344V2.072ZM26.7794 14.84V7.52C26.7794 7.216 26.7314 7.016 26.6354 6.92C26.5554 6.824 26.3554 6.776 26.0354 6.776H20.5634C20.2434 6.776 20.0354 6.824 19.9394 6.92C19.8594 7.016 19.8194 7.216 19.8194 7.52V14.84C19.8194 15.16 19.8594 15.368 19.9394 15.464C20.0354 15.544 20.2434 15.584 20.5634 15.584H26.0354C26.3554 15.584 26.5554 15.544 26.6354 15.464C26.7314 15.368 26.7794 15.16 26.7794 14.84ZM19.6754 5.36H26.9234C28.1874 5.36 28.8194 5.992 28.8194 7.256V15.104C28.8194 16.368 28.1874 17 26.9234 17H19.6754C18.4114 17 17.7794 16.368 17.7794 15.104V7.256C17.7794 5.992 18.4114 5.36 19.6754 5.36ZM49.2702 5.36H51.2382L47.1822 17H44.2782L41.3502 7.088L38.4702 17H35.5662L31.4622 5.36H33.4302L37.0302 15.608L40.1022 5.36H42.6462L45.6702 15.608L49.2702 5.36ZM66.3631 6.776H63.4351V14.72C63.4351 15.024 63.4831 15.224 63.5791 15.32C63.6751 15.416 63.8751 15.464 64.1791 15.464H66.3391V17H63.2671C62.0031 17 61.3711 16.368 61.3711 15.104V6.776H59.4991V5.36H61.3711V3.344H63.4351V5.36H66.3631V6.776ZM78.2481 14.84V7.52C78.2481 7.216 78.2001 7.016 78.1041 6.92C78.0241 6.824 77.8241 6.776 77.5041 6.776H72.0321C71.7121 6.776 71.5041 6.824 71.4081 6.92C71.3281 7.016 71.2881 7.216 71.2881 7.52V14.84C71.2881 15.16 71.3281 15.368 71.4081 15.464C71.5041 15.544 71.7121 15.584 72.0321 15.584H77.5041C77.8241 15.584 78.0241 15.544 78.1041 15.464C78.2001 15.368 78.2481 15.16 78.2481 14.84ZM71.1441 5.36H78.3921C79.6561 5.36 80.2881 5.992 80.2881 7.256V15.104C80.2881 16.368 79.6561 17 78.3921 17H71.1441C69.8801 17 69.2481 16.368 69.2481 15.104V7.256C69.2481 5.992 69.8801 5.36 71.1441 5.36ZM100.101 14.84V7.52C100.101 7.216 100.053 7.016 99.9569 6.92C99.8769 6.824 99.6769 6.776 99.3569 6.776H93.8369C93.5489 6.776 93.3409 6.84 93.2129 6.968C93.0849 7.096 93.0209 7.312 93.0209 7.616V14.744C93.0209 15.048 93.0849 15.264 93.2129 15.392C93.3409 15.52 93.5489 15.584 93.8369 15.584H99.3569C99.6769 15.584 99.8769 15.544 99.9569 15.464C100.053 15.368 100.101 15.16 100.101 14.84ZM94.3409 5.36H100.269C101.533 5.36 102.165 5.992 102.165 7.256V15.104C102.165 16.368 101.533 17 100.269 17H94.3409C93.6689 17 93.2289 16.744 93.0209 16.232V20.384H90.9569V5.36H93.0209V6.128C93.2289 5.616 93.6689 5.36 94.3409 5.36ZM108.542 17H106.478V0.943999H108.542V17ZM115.673 15.584H120.953C121.241 15.584 121.449 15.52 121.577 15.392C121.705 15.264 121.769 15.048 121.769 14.744V7.616C121.769 7.312 121.705 7.096 121.577 6.968C121.449 6.84 121.241 6.776 120.953 6.776H115.673C115.369 6.776 115.169 6.824 115.073 6.92C114.977 7.016 114.929 7.216 114.929 7.52V14.84C114.929 15.16 114.977 15.368 115.073 15.464C115.169 15.544 115.369 15.584 115.673 15.584ZM121.769 5.36H123.833V17H121.769V16.232C121.561 16.744 121.121 17 120.449 17H114.761C113.497 17 112.865 16.368 112.865 15.104V7.256C112.865 5.992 113.497 5.36 114.761 5.36H120.449C121.121 5.36 121.561 5.616 121.769 6.128V5.36ZM131.128 20.384H128.848V18.968H130.432C131.28 18.968 131.856 18.672 132.16 18.08L132.688 17H131.968L126.856 5.36H128.944L133.312 15.584L137.584 5.36H139.672L133.936 18.32C133.632 19.024 133.28 19.544 132.88 19.88C132.48 20.216 131.896 20.384 131.128 20.384ZM141.284 11.192V9.776H148.004V11.192H141.284ZM161.933 9.968V4.232C161.933 3.912 161.885 3.712 161.789 3.632C161.693 3.536 161.493 3.488 161.189 3.488H153.941V10.712H161.189C161.493 10.712 161.693 10.664 161.789 10.568C161.885 10.472 161.933 10.272 161.933 9.968ZM151.853 2.072H162.101C163.365 2.072 163.997 2.704 163.997 3.968V10.232C163.997 11.496 163.365 12.128 162.101 12.128H153.941V17H151.853V2.072ZM171.534 5.36H174.03V6.824H171.222C170.182 6.824 169.662 7.424 169.662 8.624V17H167.598V5.36H169.662V6.824C169.918 5.848 170.542 5.36 171.534 5.36ZM178.257 10.328H185.361V7.52C185.361 7.216 185.313 7.016 185.217 6.92C185.121 6.824 184.921 6.776 184.617 6.776H179.001C178.697 6.776 178.497 6.824 178.401 6.92C178.305 7.016 178.257 7.216 178.257 7.52V10.328ZM178.089 5.36H185.505C186.769 5.36 187.401 5.992 187.401 7.256V11.744H178.257V14.84C178.257 15.16 178.305 15.368 178.401 15.464C178.497 15.544 178.697 15.584 179.001 15.584H184.545C184.865 15.584 185.065 15.544 185.145 15.464C185.241 15.368 185.289 15.16 185.289 14.84V13.712H187.329V15.104C187.329 16.368 186.697 17 185.433 17H178.089C176.825 17 176.193 16.368 176.193 15.104V7.256C176.193 5.992 176.825 5.36 178.089 5.36ZM199.19 14.864V12.656C199.19 12.352 199.142 12.152 199.046 12.056C198.966 11.96 198.766 11.912 198.446 11.912H192.902C191.638 11.912 191.006 11.28 191.006 10.016V7.256C191.006 5.992 191.638 5.36 192.902 5.36H199.286C200.55 5.36 201.182 5.992 201.182 7.256V8.504H199.166V7.496C199.166 7.176 199.118 6.976 199.022 6.896C198.926 6.8 198.726 6.752 198.422 6.752H193.79C193.47 6.752 193.262 6.8 193.166 6.896C193.086 6.976 193.046 7.176 193.046 7.496V9.752C193.046 10.072 193.086 10.28 193.166 10.376C193.262 10.456 193.47 10.496 193.79 10.496H199.334C200.598 10.496 201.23 11.128 201.23 12.392V15.104C201.23 16.368 200.598 17 199.334 17H192.95C191.686 17 191.054 16.368 191.054 15.104V13.856H193.094V14.864C193.094 15.168 193.134 15.368 193.214 15.464C193.31 15.56 193.518 15.608 193.838 15.608H198.446C198.766 15.608 198.966 15.56 199.046 15.464C199.142 15.368 199.19 15.168 199.19 14.864ZM213.018 14.864V12.656C213.018 12.352 212.97 12.152 212.874 12.056C212.794 11.96 212.594 11.912 212.274 11.912H206.73C205.466 11.912 204.834 11.28 204.834 10.016V7.256C204.834 5.992 205.466 5.36 206.73 5.36H213.114C214.378 5.36 215.01 5.992 215.01 7.256V8.504H212.994V7.496C212.994 7.176 212.946 6.976 212.85 6.896C212.754 6.8 212.554 6.752 212.25 6.752H207.618C207.298 6.752 207.09 6.8 206.994 6.896C206.914 6.976 206.874 7.176 206.874 7.496V9.752C206.874 10.072 206.914 10.28 206.994 10.376C207.09 10.456 207.298 10.496 207.618 10.496H213.162C214.426 10.496 215.058 11.128 215.058 12.392V15.104C215.058 16.368 214.426 17 213.162 17H206.778C205.514 17 204.882 16.368 204.882 15.104V13.856H206.922V14.864C206.922 15.168 206.962 15.368 207.042 15.464C207.138 15.56 207.346 15.608 207.666 15.608H212.274C212.594 15.608 212.794 15.56 212.874 15.464C212.97 15.368 213.018 15.168 213.018 14.864ZM236.672 2.072H238.784V17H236.672V10.232H227.84V17H225.728V2.072H227.84V8.816H236.672V2.072Z" fill="white"/>
</svg>
