<svg width="290" height="27" viewBox="0 0 290 27" fill="none" xmlns="http://www.w3.org/2000/svg">
<rect width="5.373" height="5.65717" transform="matrix(-0.999928 0.0120117 -0.0114857 -0.999934 174.793 26.7161)" fill="white"/>
<rect width="5.373" height="5.65717" transform="matrix(-0.999928 0.0120117 -0.0114857 -0.999934 174.553 5.78589)" fill="white"/>
<rect width="23.6412" height="4.52574" transform="matrix(-0.999928 0.0120117 -0.0114857 -0.999934 174.67 15.968)" fill="white"/>
<rect width="5.373" height="5.09145" transform="matrix(-0.999928 0.0120117 -0.0114857 -0.999934 180.101 20.9946)" fill="white"/>
<rect width="5.373" height="4.52574" transform="matrix(-0.999928 0.0120117 -0.0114857 -0.999934 185.415 15.8389)" fill="white"/>
<rect width="5.373" height="5.65717" transform="matrix(-0.999928 0.0120117 -0.0114857 -0.999934 179.99 11.3782)" fill="white"/>
<rect x="284" y="8.13086" width="3" height="15.3397" fill="white"/>
<rect width="3.83489" height="8.94281" transform="matrix(-0.00476417 -0.999989 0.99997 -0.00778484 281.018 8.22437)" fill="white"/>
<rect x="272" y="4.29614" width="3" height="19.1746" fill="white"/>
<rect x="263" y="4.29614" width="3" height="19.1746" fill="white"/>
<rect width="4.05437" height="5.82721" transform="matrix(-0.000166951 -1 1 -0.000272809 266.149 16.0237)" fill="white"/>
<rect x="244" y="8.1311" width="4" height="11.5048" fill="white"/>
<rect x="254" y="11.9661" width="3" height="7.66984" fill="white"/>
<rect width="3.83492" height="9.00002" transform="matrix(-0.00195508 -0.999998 0.999995 -0.00319472 248.008 8.15991)" fill="white"/>
<rect width="3.83492" height="3.99076" transform="matrix(-0.00195508 -0.999998 0.999995 -0.00319472 250.008 15.8137)" fill="white"/>
<rect width="3.83492" height="6.12797" transform="matrix(-0.00195508 -0.999998 0.999995 -0.00319472 248.008 23.4995)" fill="white"/>
<rect x="235" y="4.29614" width="3" height="19.1746" fill="white"/>
<rect x="217" y="4.29614" width="3.60001" height="20.4529" fill="white"/>
<rect width="5.40001" height="4.17406" transform="translate(220.6 4.29614)" fill="white"/>
<rect width="5.40001" height="4.17406" transform="translate(220.6 12.2268)" fill="white"/>
<rect width="3.00001" height="3.75666" transform="translate(226 8.47021)" fill="white"/>
<rect width="3.00001" height="3.75666" transform="translate(223 16.4009)" fill="white"/>
<rect width="3.00001" height="3.75666" transform="translate(226 20.1577)" fill="white"/>
<rect width="3" height="3.83492" transform="translate(196 8.1311)" fill="white"/>
<rect width="3" height="3.83492" transform="translate(196 15.801)" fill="white"/>
<rect width="5.37298" height="5.74468" transform="translate(10.746)" fill="white"/>
<rect width="5.37298" height="5.74468" transform="translate(10.746 21.2554)" fill="white"/>
<rect width="23.6411" height="4.59574" transform="translate(10.746 10.9148)" fill="white"/>
<rect width="5.37298" height="5.17021" transform="translate(5.37305 5.74463)" fill="white"/>
<rect width="5.37298" height="4.59574" transform="translate(0 10.9148)" fill="white"/>
<rect width="5.37298" height="5.74468" transform="translate(5.37305 15.5107)" fill="white"/>
<rect x="113" y="7.26929" width="3" height="16.6154" fill="white"/>
<rect width="9" height="4.15384" transform="translate(110 3.11548)" fill="white"/>
<rect x="95" y="3.11548" width="3" height="20.7692" fill="white"/>
<rect width="6" height="4.15384" transform="translate(98 3.11548)" fill="white"/>
<rect width="6" height="4.15384" transform="translate(98 11.4231)" fill="white"/>
<rect x="80" y="3.11548" width="3.66667" height="20.7692" fill="white"/>
<rect width="6.33333" height="4.66248" transform="translate(83.6666 3.11548)" fill="white"/>
<rect width="6.33333" height="4.66248" transform="translate(83.6666 11.1689)" fill="white"/>
<rect width="6.33333" height="4.66248" transform="translate(83.6666 19.2222)" fill="white"/>
<rect x="64" y="3.11548" width="3" height="20.7692" fill="white"/>
<rect width="6" height="4.15384" transform="translate(67 19.731)" fill="white"/>
<rect width="3" height="4.15384" transform="translate(43 7.26929)" fill="white"/>
<rect width="3" height="4.15384" transform="translate(43 15.5769)" fill="white"/>
</svg>
