<svg width="1169" height="95" viewBox="0 0 1169 95" fill="none" xmlns="http://www.w3.org/2000/svg">
<rect x="1098.25" width="21.0528" height="85.9655" fill="#FF4B00"/>
<rect width="31.5792" height="17.544" transform="translate(1119.31)" fill="#FF4B00"/>
<rect width="31.5792" height="17.544" transform="translate(1119.31 33.3333)" fill="#FF4B00"/>
<rect width="17.544" height="15.7896" transform="translate(1150.88 17.5439)" fill="#FF4B00"/>
<rect width="17.544" height="15.7896" transform="translate(1133.34 50.8774)" fill="#FF4B00"/>
<rect width="17.544" height="15.7896" transform="translate(1150.88 66.6672)" fill="#FF4B00"/>
<rect x="1014.04" width="20.5849" height="85.9655" fill="#FF4B00"/>
<rect width="35.5558" height="19.2984" transform="translate(1034.63)" fill="#FF4B00"/>
<rect width="35.5558" height="19.2984" transform="translate(1034.63 33.3333)" fill="#FF4B00"/>
<rect width="35.5558" height="19.2984" transform="translate(1034.63 66.6672)" fill="#FF4B00"/>
<rect width="19.2984" height="84.2111" transform="translate(914.041 1.75415)" fill="#FF4B00"/>
<rect width="17.544" height="17.544" transform="translate(968.427 1.75415)" fill="#FF4B00"/>
<rect width="17.544" height="17.544" transform="translate(950.883 19.2983)" fill="#FF4B00"/>
<rect width="17.544" height="17.544" transform="translate(950.883 50.8774)" fill="#FF4B00"/>
<rect width="17.544" height="17.544" transform="translate(933.34 35.0881)" fill="#FF4B00"/>
<rect width="17.544" height="17.544" transform="translate(968.427 68.4214)" fill="#FF4B00"/>
<rect width="31.5792" height="19.7004" transform="translate(833.338 1.75415)" fill="#FF4B00"/>
<rect width="31.5792" height="19.7004" transform="translate(833.338 37.5735)" fill="#FF4B00"/>
<rect width="17.544" height="66.2651" transform="translate(815.795 21.4548)" fill="#FF4B00"/>
<rect width="17.544" height="66.2651" transform="translate(864.918 21.4548)" fill="#FF4B00"/>
<rect x="726.321" y="1.75415" width="19.2984" height="85.9655" fill="#FF4B00"/>
<rect width="33.3336" height="19.2984" transform="translate(745.62 1.75415)" fill="#FF4B00"/>
<rect width="33.3336" height="19.2984" transform="translate(745.62 35.0881)" fill="#FF4B00"/>
<rect width="33.3336" height="19.2984" transform="translate(745.62 68.4214)" fill="#FF4B00"/>
<rect x="624.565" y="1.75415" width="21.0528" height="85.9655" fill="#FF4B00"/>
<rect width="31.5792" height="17.544" transform="translate(645.618 1.75415)" fill="#FF4B00"/>
<rect width="31.5792" height="17.544" transform="translate(645.618 35.0881)" fill="#FF4B00"/>
<rect width="17.544" height="15.7896" transform="translate(677.197 19.2983)" fill="#FF4B00"/>
<rect width="17.544" height="15.7896" transform="translate(659.653 52.6321)" fill="#FF4B00"/>
<rect width="17.544" height="15.7896" transform="translate(677.197 68.4214)" fill="#FF4B00"/>
<rect x="524.565" y="1.75415" width="21.0528" height="85.9655" fill="#FF4B00"/>
<rect width="31.5792" height="19.2984" transform="translate(545.618 1.75415)" fill="#FF4B00"/>
<rect width="31.5792" height="19.2984" transform="translate(545.618 68.4214)" fill="#FF4B00"/>
<rect width="31.5792" height="19.2984" transform="translate(545.618 35.0881)" fill="#FF4B00"/>
<rect width="15.7896" height="47.3687" transform="translate(577.197 21.0525)" fill="#FF4B00"/>
<rect y="8.77173" width="21.0528" height="85.9655" fill="#FF4B00"/>
<rect width="31.5792" height="19.2984" transform="translate(21.0532 8.77173)" fill="#FF4B00"/>
<rect width="31.5792" height="19.2984" transform="translate(21.0532 75.439)" fill="#FF4B00"/>
<rect width="31.5792" height="19.2984" transform="translate(21.0532 42.1055)" fill="#FF4B00"/>
<rect width="15.7896" height="47.3687" transform="translate(52.6328 28.0706)" fill="#FF4B00"/>
<rect x="98.2461" y="8.77173" width="21.0528" height="85.9655" fill="#FF4B00"/>
<rect width="31.5792" height="17.544" transform="translate(119.299 8.77173)" fill="#FF4B00"/>
<rect width="31.5792" height="17.544" transform="translate(119.299 42.1055)" fill="#FF4B00"/>
<rect width="17.544" height="15.7896" transform="translate(150.878 26.3159)" fill="#FF4B00"/>
<rect width="17.544" height="15.7896" transform="translate(133.334 59.6497)" fill="#FF4B00"/>
<rect width="17.544" height="15.7896" transform="translate(150.878 75.439)" fill="#FF4B00"/>
<rect x="198.247" y="7.01758" width="21.0528" height="85.9655" fill="#FF4B00"/>
<rect width="17.544" height="50.8775" transform="translate(249.124 24.5615)" fill="#FF4B00"/>
<rect width="33.3336" height="15.7896" transform="translate(266.667 8.77173)" fill="#FF4B00"/>
<rect width="33.3336" height="15.7896" transform="translate(266.667 75.439)" fill="#FF4B00"/>
<rect width="17.544" height="17.544" transform="translate(300.001 24.5615)" fill="#FF4B00"/>
<rect width="17.544" height="17.544" transform="translate(300.001 57.8953)" fill="#FF4B00"/>
<rect width="19.2984" height="84.2111" transform="translate(354.388 8.77173)" fill="#FF4B00"/>
<rect width="17.544" height="17.544" transform="translate(408.774 8.77173)" fill="#FF4B00"/>
<rect width="17.544" height="17.544" transform="translate(391.23 26.3159)" fill="#FF4B00"/>
<rect width="17.544" height="17.544" transform="translate(391.23 57.8953)" fill="#FF4B00"/>
<rect width="17.544" height="17.544" transform="translate(373.687 42.1055)" fill="#FF4B00"/>
<rect width="17.544" height="17.544" transform="translate(408.774 75.439)" fill="#FF4B00"/>
</svg>
