<svg width="407" height="17" viewBox="0 0 407 17" fill="none" xmlns="http://www.w3.org/2000/svg">
<rect x="360" y="3.63818" width="3" height="12" fill="white"/>
<rect x="363" y="0.638184" width="6" height="3" fill="#D9D9D9"/>
<rect x="363" y="6.63818" width="7" height="3" fill="#D9D9D9"/>
<rect x="369" y="3.63818" width="3" height="12" fill="#D9D9D9"/>
<rect width="3" height="5.83282" transform="translate(401 3.63794) rotate(-89.3736)" fill="white"/>
<rect width="3" height="5.83282" transform="translate(401 9.63794) rotate(-89.3736)" fill="white"/>
<rect width="3" height="5.83282" transform="translate(401 15.6379) rotate(-89.3736)" fill="white"/>
<rect width="3" height="15" transform="translate(398 0.638184)" fill="white"/>
<rect width="3" height="2.92119" transform="translate(176 6.63794) rotate(-89.3736)" fill="white"/>
<rect width="3" height="2.92119" transform="translate(174 12.6379) rotate(-89.3736)" fill="white"/>
<rect width="3" height="2.92119" transform="translate(177 15.6379) rotate(-89.3736)" fill="white"/>
<rect width="3" height="15" transform="translate(167 0.638184)" fill="white"/>
<rect width="3" height="5.98231" transform="translate(170 3.63818) rotate(-89.9245)" fill="white"/>
<rect width="3" height="5.86791" transform="translate(170 9.63818) rotate(-89.9245)" fill="white"/>
<rect width="3" height="2.92119" transform="translate(305 7.63794) rotate(-89.3736)" fill="white"/>
<rect width="3" height="2.92119" transform="translate(303 13.6379) rotate(-89.3736)" fill="white"/>
<rect width="3" height="2.92119" transform="translate(306 16.6379) rotate(-89.3736)" fill="white"/>
<rect width="3" height="15" transform="translate(296 1.63818)" fill="white"/>
<rect width="3" height="5.98231" transform="translate(299 4.63818) rotate(-89.9245)" fill="white"/>
<rect width="3" height="5.86791" transform="translate(299 10.6382) rotate(-89.9245)" fill="white"/>
<rect width="3" height="5.83282" transform="translate(155 4.63794) rotate(-89.3736)" fill="white"/>
<rect width="3" height="5.83282" transform="translate(155 10.6379) rotate(-89.3736)" fill="white"/>
<rect width="3" height="5.83282" transform="translate(155 16.6379) rotate(-89.3736)" fill="white"/>
<rect width="3" height="15" transform="translate(152 1.63818)" fill="white"/>
<rect width="3" height="5.83282" transform="translate(40 4.63794) rotate(-89.3736)" fill="white"/>
<rect width="3" height="5.83282" transform="translate(40 10.6379) rotate(-89.3736)" fill="white"/>
<rect width="3" height="5.83282" transform="translate(40 16.6379) rotate(-89.3736)" fill="white"/>
<rect width="3" height="15" transform="translate(37 1.63818)" fill="white"/>
<rect width="3" height="5.83282" transform="translate(104 4.63794) rotate(-89.3736)" fill="white"/>
<rect width="3" height="5.83282" transform="translate(104 10.6379) rotate(-89.3736)" fill="white"/>
<rect width="3" height="5.83282" transform="translate(104 16.6379) rotate(-89.3736)" fill="white"/>
<rect width="3" height="15" transform="translate(101 1.63818)" fill="white"/>
<rect width="3" height="8.70304" transform="translate(52 16.6382) rotate(-89.3736)" fill="white"/>
<rect width="3" height="2.92119" transform="translate(61 13.6382) rotate(-89.3736)" fill="white"/>
<rect width="3" height="5.80503" transform="translate(54.8978 10.6699) rotate(-89.3736)" fill="white"/>
<rect width="3" height="2.92119" transform="translate(52 7.63818) rotate(-89.3736)" fill="white"/>
<rect width="3" height="8.70304" transform="translate(55.13 4.60669) rotate(-89.3736)" fill="white"/>
<rect width="3" height="8.70304" transform="translate(244 15.6694) rotate(-89.3736)" fill="white"/>
<rect width="3" height="2.92119" transform="translate(253 12.6694) rotate(-89.3736)" fill="white"/>
<rect width="3" height="5.80503" transform="translate(246.898 9.70117) rotate(-89.3736)" fill="white"/>
<rect width="3" height="2.92119" transform="translate(244 6.66943) rotate(-89.3736)" fill="white"/>
<rect width="3" height="8.70304" transform="translate(247.13 3.63794) rotate(-89.3736)" fill="white"/>
<rect width="3" height="8.70304" transform="translate(70 16.6694) rotate(-89.3736)" fill="white"/>
<rect width="3" height="2.92119" transform="translate(79 13.6694) rotate(-89.3736)" fill="white"/>
<rect width="3" height="5.80503" transform="translate(72.8978 10.7012) rotate(-89.3736)" fill="white"/>
<rect width="3" height="2.92119" transform="translate(70 7.66943) rotate(-89.3736)" fill="white"/>
<rect width="3" height="8.70304" transform="translate(73.13 4.63794) rotate(-89.3736)" fill="white"/>
<rect width="3" height="15" transform="translate(0 1.63818)" fill="white"/>
<rect width="3" height="5.83282" transform="translate(3 4.63794) rotate(-89.3736)" fill="white"/>
<rect width="3" height="5.83282" transform="translate(3 10.6379) rotate(-89.3736)" fill="white"/>
<rect width="3" height="2.92119" transform="translate(9 7.63794) rotate(-89.3736)" fill="white"/>
<rect width="3" height="2.92119" transform="translate(27 7.63794) rotate(-89.3736)" fill="white"/>
<rect width="3" height="2.92119" transform="translate(25 13.6379) rotate(-89.3736)" fill="white"/>
<rect width="3" height="2.92119" transform="translate(28 16.6379) rotate(-89.3736)" fill="white"/>
<rect width="3" height="15" transform="translate(18 1.63818)" fill="white"/>
<rect width="3" height="5.98231" transform="translate(21 4.63818) rotate(-89.9245)" fill="white"/>
<rect width="3" height="5.86791" transform="translate(21 10.6382) rotate(-89.9245)" fill="white"/>
<rect width="3" height="2.92119" transform="translate(119 7.63794) rotate(-89.3736)" fill="white"/>
<rect width="3" height="2.92119" transform="translate(122 10.6379) rotate(-89.3736)" fill="white"/>
<rect width="3" height="2.92119" transform="translate(125 13.6379) rotate(-89.3736)" fill="white"/>
<rect width="3" height="15" transform="translate(116 1.63818)" fill="white"/>
<rect width="3" height="15" transform="translate(128 1.63818)" fill="white"/>
<rect width="3" height="12" transform="translate(201 4.63818)" fill="white"/>
<rect width="3" height="8.91092" transform="translate(198 4.63818) rotate(-89.8523)" fill="white"/>
<rect width="3" height="12" transform="translate(264 4.63818)" fill="white"/>
<rect width="3" height="8.91092" transform="translate(261 4.63818) rotate(-89.8523)" fill="white"/>
<rect width="3" height="12" transform="translate(140 4.63818)" fill="white"/>
<rect width="3" height="8.91092" transform="translate(137 4.63818) rotate(-89.8523)" fill="white"/>
<rect width="3" height="12" transform="translate(317 4.63818)" fill="white"/>
<rect width="3" height="8.91092" transform="translate(314 4.63818) rotate(-89.8523)" fill="white"/>
<rect x="277" y="4.63818" width="3" height="12" fill="white"/>
<rect x="280" y="1.63818" width="6" height="3" fill="#D9D9D9"/>
<rect x="280" y="7.63818" width="7" height="3" fill="#D9D9D9"/>
<rect x="286" y="4.63818" width="3" height="12" fill="#D9D9D9"/>
<rect x="215" y="1.63818" width="6" height="3" fill="#D9D9D9"/>
<rect x="212" y="4.63818" width="3" height="9" fill="#D9D9D9"/>
<rect x="221" y="4.63818" width="3" height="9" fill="#D9D9D9"/>
<rect x="215" y="13.6382" width="6" height="3" fill="#D9D9D9"/>
<rect x="346" y="1.63818" width="9" height="3" fill="#D9D9D9"/>
<rect x="343" y="4.63818" width="3" height="9" fill="#D9D9D9"/>
<rect x="349" y="7.63818" width="6" height="3" fill="#D9D9D9"/>
<rect x="352" y="10.6382" width="3" height="3" fill="#D9D9D9"/>
<rect x="346" y="13.6382" width="6" height="3" fill="#D9D9D9"/>
<rect x="380" y="3.63818" width="3" height="3" fill="#D9D9D9"/>
<rect x="383" y="6.63818" width="4" height="3" fill="#D9D9D9"/>
<rect x="387" y="3.63818" width="3" height="3" fill="#D9D9D9"/>
<path d="M376 0.638184H380V15.6382H376V0.638184Z" fill="#D9D9D9"/>
<path d="M390 0.638184H394V15.6382H390V0.638184Z" fill="#D9D9D9"/>
</svg>
