<svg width="71" height="24" viewBox="0 0 71 24" fill="none" xmlns="http://www.w3.org/2000/svg">
<path d="M4.336 2.976V17.12C4.336 17.5467 4.4 17.824 4.528 17.952C4.656 18.0587 4.92267 18.112 5.328 18.112H11.664C12.0693 18.112 12.336 18.0587 12.464 17.952C12.592 17.824 12.656 17.5467 12.656 17.12V2.976C12.656 2.54933 12.592 2.28267 12.464 2.176C12.336 2.048 12.0693 1.984 11.664 1.984H5.328C4.92267 1.984 4.656 2.048 4.528 2.176C4.4 2.28267 4.336 2.54933 4.336 2.976ZM2.64 20C0.954667 20 0.112 19.1573 0.112 17.472V2.624C0.112 0.938665 0.954667 0.0959988 2.64 0.0959988H14.32C16.0053 0.0959988 16.848 0.938665 16.848 2.624V17.472C16.848 19.1573 16.0053 20 14.32 20H13.2L17.008 23.104H11.984L8.368 20H2.64ZM25.848 0.0959988V17.12C25.848 17.5467 25.912 17.824 26.04 17.952C26.168 18.0587 26.4347 18.112 26.84 18.112H33.496C33.9013 18.112 34.168 18.0587 34.296 17.952C34.424 17.824 34.488 17.5467 34.488 17.12V0.0959988H38.744V17.472C38.744 19.1573 37.9013 20 36.216 20H24.088C22.4027 20 21.56 19.1573 21.56 17.472V0.0959988H25.848ZM44.4165 0.0959988H48.8325V20H44.4165V0.0959988ZM70.1135 0.0959988V1.984H63.2975V20H59.0095V1.984H52.2255V0.0959988H70.1135Z" fill="white"/>
</svg>
