<svg width="112" height="24" viewBox="0 0 112 24" fill="none" xmlns="http://www.w3.org/2000/svg">
<path d="M4.336 2.976V17.12C4.336 17.5467 4.4 17.824 4.528 17.952C4.656 18.0587 4.92267 18.112 5.328 18.112H11.664C12.0693 18.112 12.336 18.0587 12.464 17.952C12.592 17.824 12.656 17.5467 12.656 17.12V2.976C12.656 2.54933 12.592 2.28267 12.464 2.176C12.336 2.048 12.0693 1.984 11.664 1.984H5.328C4.92267 1.984 4.656 2.048 4.528 2.176C4.4 2.28267 4.336 2.54933 4.336 2.976ZM2.64 20C0.954667 20 0.112 19.1573 0.112 17.472V2.624C0.112 0.938665 0.954667 0.0959988 2.64 0.0959988H14.32C16.0053 0.0959988 16.848 0.938665 16.848 2.624V17.472C16.848 19.1573 16.0053 20 14.32 20H13.2L17.008 23.104H11.984L8.368 20H2.64ZM25.848 0.0959988V17.12C25.848 17.5467 25.912 17.824 26.04 17.952C26.168 18.0587 26.4347 18.112 26.84 18.112H33.496C33.9013 18.112 34.168 18.0587 34.296 17.952C34.424 17.824 34.488 17.5467 34.488 17.12V0.0959988H38.744V17.472C38.744 19.1573 37.9013 20 36.216 20H24.088C22.4027 20 21.56 19.1573 21.56 17.472V0.0959988H25.848ZM44.4165 0.0959988H48.8325V20H44.4165V0.0959988ZM70.1135 0.0959988V1.984H63.2975V20H59.0095V1.984H52.2255V0.0959988H70.1135ZM72.263 12.256V10.368H81.735V12.256H72.263ZM98.7423 2.976V17.12C98.7423 17.5467 98.8063 17.824 98.9343 17.952C99.0623 18.0587 99.3289 18.112 99.7343 18.112H106.07C106.476 18.112 106.742 18.0587 106.87 17.952C106.998 17.824 107.062 17.5467 107.062 17.12V2.976C107.062 2.54933 106.998 2.28267 106.87 2.176C106.742 2.048 106.476 1.984 106.07 1.984H99.7343C99.3289 1.984 99.0623 2.048 98.9343 2.176C98.8063 2.28267 98.7423 2.54933 98.7423 2.976ZM97.0463 20C95.3609 20 94.5182 19.1573 94.5182 17.472V2.624C94.5182 0.938665 95.3609 0.0959988 97.0463 0.0959988H108.726C110.412 0.0959988 111.254 0.938665 111.254 2.624V17.472C111.254 19.1573 110.412 20 108.726 20H107.606L111.414 23.104H106.39L102.774 20H97.0463Z" fill="white"/>
</svg>
