<svg width="123" height="20" viewBox="0 0 123 20" fill="none" xmlns="http://www.w3.org/2000/svg">
<path d="M5.136 1.984V10.976H12.88C13.2853 10.976 13.552 10.912 13.68 10.784C13.808 10.656 13.872 10.3893 13.872 9.984V2.976C13.872 2.54933 13.808 2.28267 13.68 2.176C13.552 2.048 13.2853 1.984 12.88 1.984H5.136ZM5.136 12.864V20H0.848V0.0959988H15.6C17.2853 0.0959988 18.128 0.938665 18.128 2.624V10.336C18.128 12.0213 17.2853 12.864 15.6 12.864H13.904L18.416 20H13.968L9.616 12.864H5.136ZM27.6703 18.112H38.2943V20H23.2543V0.0959988H37.8463V1.984H27.6703V8.864H36.5343V10.752H27.6703V18.112ZM55.4963 10.624V2.976C55.4963 2.54933 55.4323 2.28267 55.3043 2.176C55.1976 2.048 54.9309 1.984 54.5043 1.984H46.7923V11.616H54.5043C54.9309 11.616 55.1976 11.552 55.3043 11.424C55.4323 11.296 55.4963 11.0293 55.4963 10.624ZM42.5043 0.0959988H57.2243C58.9096 0.0959988 59.7523 0.938665 59.7523 2.624V10.976C59.7523 12.6613 58.9096 13.504 57.2243 13.504H46.7923V20H42.5043V0.0959988ZM68.5423 18.112H78.3983V20H64.2543V0.0959988H68.5423V18.112ZM86.3235 14.176H94.6115L90.4515 2.784L86.3235 14.176ZM96.7555 20L95.3155 16.064H85.6515L84.2115 20H80.0195L87.6675 0.0959988H93.2995L100.98 20H96.7555ZM114.709 20H110.421V13.536L102.037 0.0959988H106.325L112.533 10.752L118.453 0.0959988H122.709L114.709 13.504V20Z" fill="white"/>
</svg>
