<svg width="157" height="27" viewBox="0 0 157 27" fill="none" xmlns="http://www.w3.org/2000/svg">
<path d="M5.808 3.984V12.976H12.4C12.8267 12.976 13.0933 12.912 13.2 12.784C13.328 12.656 13.392 12.3893 13.392 11.984V4.976C13.392 4.54933 13.328 4.28267 13.2 4.176C13.0933 4.048 12.8267 3.984 12.4 3.984H5.808ZM5.808 14.864V22H0.624V2.096H16.016C17.7013 2.096 18.544 2.93867 18.544 4.624V12.336C18.544 14.0213 17.7013 14.864 16.016 14.864H14.448L18.96 22H13.584L9.296 14.864H5.808ZM27.697 13.104H34.609V9.36C34.609 8.95467 34.545 8.688 34.417 8.56C34.3103 8.432 34.0437 8.368 33.617 8.368H28.689C28.2623 8.368 27.985 8.432 27.857 8.56C27.7503 8.688 27.697 8.95467 27.697 9.36V13.104ZM25.297 6.48H36.881C38.5663 6.48 39.409 7.32267 39.409 9.008V14.992H27.697V19.12C27.697 19.5467 27.7503 19.824 27.857 19.952C27.985 20.0587 28.2623 20.112 28.689 20.112H33.553C33.9797 20.112 34.2463 20.0587 34.353 19.952C34.481 19.824 34.545 19.5467 34.545 19.12V17.232H39.345V19.472C39.345 21.1573 38.5023 22 36.817 22H25.297C23.6117 22 22.769 21.1573 22.769 19.472V9.008C22.769 7.32267 23.6117 6.48 25.297 6.48ZM55.2645 19.12V9.36C55.2645 8.95467 55.2005 8.688 55.0725 8.56C54.9445 8.432 54.6778 8.368 54.2725 8.368H49.7925C49.0245 8.368 48.6405 8.72 48.6405 9.424V19.088C48.6405 19.7707 49.0245 20.112 49.7925 20.112H54.2725C54.6778 20.112 54.9445 20.0587 55.0725 19.952C55.2005 19.824 55.2645 19.5467 55.2645 19.12ZM50.4325 6.48H57.6645C59.3498 6.48 60.1925 7.32267 60.1925 9.008V19.472C60.1925 21.1573 59.3498 22 57.6645 22H50.4325C49.4938 22 48.8965 21.68 48.6405 21.04V26.512H43.6805V6.48H48.5765V7.6C48.8325 6.85333 49.4512 6.48 50.4325 6.48ZM69.9278 22H64.9678V0.591999H69.9278V22ZM80.6265 20.112H84.9465C85.7145 20.112 86.0985 19.7707 86.0985 19.088V9.392C86.0985 8.70933 85.7145 8.368 84.9465 8.368H80.6265C80.1998 8.368 79.9225 8.432 79.7945 8.56C79.6878 8.688 79.6345 8.95467 79.6345 9.36V19.12C79.6345 19.5467 79.6878 19.824 79.7945 19.952C79.9225 20.0587 80.1998 20.112 80.6265 20.112ZM86.0985 6.48H91.0265V22H86.0985V20.944C85.8425 21.648 85.2345 22 84.2745 22H77.2345C75.5492 22 74.7065 21.1573 74.7065 19.472V9.008C74.7065 7.32267 75.5492 6.48 77.2345 6.48H84.2745C85.2345 6.48 85.8425 6.832 86.0985 7.536V6.48ZM100.766 26.512H97.0223V24.624H99.1343C99.8596 24.624 100.414 24.5067 100.798 24.272C101.182 24.0587 101.492 23.696 101.726 23.184L102.27 22H100.414L94.0783 6.48H99.1983L103.55 18.768L107.902 6.48H112.862L106.11 22.864C105.62 24.1653 105.012 25.0933 104.286 25.648C103.561 26.224 102.388 26.512 100.766 26.512ZM114.887 14.256V12.368H124.679V14.256H114.887ZM143.121 3.984V12.976H149.713C150.139 12.976 150.406 12.912 150.513 12.784C150.641 12.656 150.705 12.3893 150.705 11.984V4.976C150.705 4.54933 150.641 4.28267 150.513 4.176C150.406 4.048 150.139 3.984 149.713 3.984H143.121ZM143.121 14.864V22H137.937V2.096H153.329C155.014 2.096 155.857 2.93867 155.857 4.624V12.336C155.857 14.0213 155.014 14.864 153.329 14.864H151.76L156.273 22H150.897L146.609 14.864H143.121Z" fill="white"/>
</svg>
