<svg width="186" height="20" viewBox="0 0 186 20" fill="none" xmlns="http://www.w3.org/2000/svg">
<path d="M5.136 1.984V10.976H12.88C13.2853 10.976 13.552 10.912 13.68 10.784C13.808 10.656 13.872 10.3893 13.872 9.984V2.976C13.872 2.54933 13.808 2.28267 13.68 2.176C13.552 2.048 13.2853 1.984 12.88 1.984H5.136ZM5.136 12.864V20H0.848V0.0959988H15.6C17.2853 0.0959988 18.128 0.938665 18.128 2.624V10.336C18.128 12.0213 17.2853 12.864 15.6 12.864H13.904L18.416 20H13.968L9.616 12.864H5.136ZM27.6703 18.112H38.2943V20H23.2543V0.0959988H37.8463V1.984H27.6703V8.864H36.5343V10.752H27.6703V18.112ZM54.2803 17.12V11.904C54.2803 11.4987 54.2163 11.232 54.0883 11.104C53.9816 10.976 53.7149 10.912 53.2883 10.912H44.3923C42.7069 10.912 41.8643 10.0693 41.8643 8.384V2.624C41.8643 0.938665 42.7069 0.0959988 44.3923 0.0959988H55.9443C57.6296 0.0959988 58.4722 0.938665 58.4722 2.624V6.048H54.1523V2.976C54.1523 2.54933 54.0883 2.28267 53.9603 2.176C53.8536 2.048 53.5869 1.984 53.1603 1.984H47.1763C46.7709 1.984 46.5043 2.048 46.3763 2.176C46.2483 2.28267 46.1843 2.54933 46.1843 2.976V8.032C46.1843 8.45867 46.2483 8.736 46.3763 8.864C46.5043 8.97067 46.7709 9.024 47.1763 9.024H56.0403C57.7256 9.024 58.5683 9.86667 58.5683 11.552V17.472C58.5683 19.1573 57.7256 20 56.0403 20H44.4883C42.8029 20 41.9603 19.1573 41.9603 17.472V14.048H46.2483V17.12C46.2483 17.5467 46.3123 17.824 46.4403 17.952C46.5683 18.0587 46.8349 18.112 47.2403 18.112H53.2883C53.7149 18.112 53.9816 18.0587 54.0883 17.952C54.2163 17.824 54.2803 17.5467 54.2803 17.12ZM78.9885 0.0959988V1.984H72.1725V20H67.8845V1.984H61.1005V0.0959988H78.9885ZM86.386 14.176H94.674L90.514 2.784L86.386 14.176ZM96.818 20L95.378 16.064H85.714L84.274 20H80.082L87.73 0.0959988H93.362L101.042 20H96.818ZM109.011 1.984V10.976H116.755C117.16 10.976 117.427 10.912 117.555 10.784C117.683 10.656 117.747 10.3893 117.747 9.984V2.976C117.747 2.54933 117.683 2.28267 117.555 2.176C117.427 2.048 117.16 1.984 116.755 1.984H109.011ZM109.011 12.864V20H104.723V0.0959988H119.475C121.16 0.0959988 122.003 0.938665 122.003 2.624V10.336C122.003 12.0213 121.16 12.864 119.475 12.864H117.779L122.291 20H117.843L113.491 12.864H109.011ZM142.457 0.0959988V1.984H135.641V20H131.353V1.984H124.569V0.0959988H142.457ZM144.607 12.256V10.368H154.079V12.256H144.607ZM171.886 1.984V10.976H179.63C180.035 10.976 180.302 10.912 180.43 10.784C180.558 10.656 180.622 10.3893 180.622 9.984V2.976C180.622 2.54933 180.558 2.28267 180.43 2.176C180.302 2.048 180.035 1.984 179.63 1.984H171.886ZM171.886 12.864V20H167.598V0.0959988H182.35C184.035 0.0959988 184.878 0.938665 184.878 2.624V10.336C184.878 12.0213 184.035 12.864 182.35 12.864H180.654L185.166 20H180.718L176.366 12.864H171.886Z" fill="white"/>
</svg>
