<svg width="287" height="21" viewBox="0 0 287 21" fill="none" xmlns="http://www.w3.org/2000/svg">
<path d="M10.544 14.84V10.928C10.544 10.624 10.496 10.424 10.4 10.328C10.32 10.232 10.12 10.184 9.8 10.184H2.816C1.552 10.184 0.92 9.552 0.92 8.288V3.968C0.92 2.704 1.552 2.072 2.816 2.072H10.664C11.928 2.072 12.56 2.704 12.56 3.968V6.344H10.448V4.232C10.448 3.912 10.4 3.712 10.304 3.632C10.224 3.536 10.024 3.488 9.704 3.488H3.776C3.472 3.488 3.272 3.536 3.176 3.632C3.08 3.712 3.032 3.912 3.032 4.232V8.024C3.032 8.344 3.08 8.552 3.176 8.648C3.272 8.728 3.472 8.768 3.776 8.768H10.736C12 8.768 12.632 9.4 12.632 10.664V15.104C12.632 16.368 12 17 10.736 17H2.864C1.6 17 0.968 16.368 0.968 15.104V12.728H3.08V14.84C3.08 15.16 3.128 15.368 3.224 15.464C3.32 15.544 3.52 15.584 3.824 15.584H9.8C10.12 15.584 10.32 15.544 10.4 15.464C10.496 15.368 10.544 15.16 10.544 14.84ZM20.1305 5.36H25.8185C27.0825 5.36 27.7145 5.992 27.7145 7.256V17H25.6505V7.52C25.6505 7.216 25.6025 7.016 25.5065 6.92C25.4105 6.824 25.2105 6.776 24.9065 6.776H19.6265C19.3385 6.776 19.1305 6.84 19.0025 6.968C18.8745 7.096 18.8105 7.312 18.8105 7.616V8.36H18.7865V17H16.7225V0.943999H18.7865V6.2C18.9625 5.64 19.4105 5.36 20.1305 5.36ZM40.5528 14.84V7.52C40.5528 7.216 40.5048 7.016 40.4088 6.92C40.3288 6.824 40.1288 6.776 39.8088 6.776H34.3368C34.0168 6.776 33.8088 6.824 33.7128 6.92C33.6328 7.016 33.5928 7.216 33.5928 7.52V14.84C33.5928 15.16 33.6328 15.368 33.7128 15.464C33.8088 15.544 34.0168 15.584 34.3368 15.584H39.8088C40.1288 15.584 40.3288 15.544 40.4088 15.464C40.5048 15.368 40.5528 15.16 40.5528 14.84ZM33.4488 5.36H40.6968C41.9608 5.36 42.5928 5.992 42.5928 7.256V15.104C42.5928 16.368 41.9608 17 40.6968 17H33.4488C32.1848 17 31.5528 16.368 31.5528 15.104V7.256C31.5528 5.992 32.1848 5.36 33.4488 5.36ZM50.6116 5.36H53.1076V6.824H50.2996C49.2596 6.824 48.7396 7.424 48.7396 8.624V17H46.6756V5.36H48.7396V6.824C48.9956 5.848 49.6196 5.36 50.6116 5.36ZM61.1756 6.776H58.2476V14.72C58.2476 15.024 58.2956 15.224 58.3916 15.32C58.4876 15.416 58.6876 15.464 58.9916 15.464H61.1516V17H58.0796C56.8156 17 56.1836 16.368 56.1836 15.104V6.776H54.3116V5.36H56.1836V3.344H58.2476V5.36H61.1756V6.776ZM74.7646 9.152H72.7006V7.52C72.7006 7.216 72.6526 7.016 72.5566 6.92C72.4606 6.824 72.2606 6.776 71.9566 6.776H66.8686C66.5646 6.776 66.3646 6.824 66.2686 6.92C66.1726 7.016 66.1246 7.216 66.1246 7.52V14.84C66.1246 15.16 66.1726 15.368 66.2686 15.464C66.3646 15.544 66.5646 15.584 66.8686 15.584H71.9566C72.2606 15.584 72.4606 15.544 72.5566 15.464C72.6526 15.368 72.7006 15.16 72.7006 14.84V13.208H74.7646V15.104C74.7646 16.368 74.1326 17 72.8686 17H65.9566C64.6926 17 64.0606 16.368 64.0606 15.104V7.256C64.0606 5.992 64.6926 5.36 65.9566 5.36H72.8686C74.1326 5.36 74.7646 5.992 74.7646 7.256V9.152ZM87.0271 5.36H89.0911V17H87.0271V16.232C86.8191 16.744 86.3791 17 85.7071 17H80.0191C78.7551 17 78.1231 16.368 78.1231 15.104V5.36H80.1871V14.84C80.1871 15.16 80.2351 15.368 80.3311 15.464C80.4271 15.544 80.6271 15.584 80.9311 15.584H86.2111C86.4991 15.584 86.7071 15.52 86.8351 15.392C86.9631 15.264 87.0271 15.048 87.0271 14.744V5.36ZM99.074 6.776H96.146V14.72C96.146 15.024 96.194 15.224 96.29 15.32C96.386 15.416 96.586 15.464 96.89 15.464H99.05V17H95.978C94.714 17 94.082 16.368 94.082 15.104V6.776H92.21V5.36H94.082V3.344H96.146V5.36H99.074V6.776ZM114.449 6.776H111.521V14.72C111.521 15.024 111.569 15.224 111.665 15.32C111.761 15.416 111.961 15.464 112.265 15.464H114.425V17H111.353C110.089 17 109.457 16.368 109.457 15.104V6.776H107.585V5.36H109.457V3.344H111.521V5.36H114.449V6.776ZM126.334 14.84V7.52C126.334 7.216 126.286 7.016 126.19 6.92C126.11 6.824 125.91 6.776 125.59 6.776H120.118C119.798 6.776 119.59 6.824 119.494 6.92C119.414 7.016 119.374 7.216 119.374 7.52V14.84C119.374 15.16 119.414 15.368 119.494 15.464C119.59 15.544 119.798 15.584 120.118 15.584H125.59C125.91 15.584 126.11 15.544 126.19 15.464C126.286 15.368 126.334 15.16 126.334 14.84ZM119.23 5.36H126.478C127.742 5.36 128.374 5.992 128.374 7.256V15.104C128.374 16.368 127.742 17 126.478 17H119.23C117.966 17 117.334 16.368 117.334 15.104V7.256C117.334 5.992 117.966 5.36 119.23 5.36ZM142.451 15.584H147.971C148.259 15.584 148.467 15.52 148.595 15.392C148.723 15.264 148.787 15.048 148.787 14.744V7.616C148.787 7.312 148.723 7.096 148.595 6.968C148.467 6.84 148.259 6.776 147.971 6.776H142.451C142.131 6.776 141.923 6.824 141.827 6.92C141.747 7.016 141.707 7.216 141.707 7.52V14.84C141.707 15.16 141.747 15.368 141.827 15.464C141.923 15.544 142.131 15.584 142.451 15.584ZM148.787 5.36H150.851V20.384H148.787V16.232C148.579 16.744 148.139 17 147.467 17H141.539C140.275 17 139.643 16.368 139.643 15.104V7.256C139.643 5.992 140.275 5.36 141.539 5.36H147.467C148.139 5.36 148.579 5.616 148.787 6.128V5.36ZM162.824 5.36H164.888V17H162.824V16.232C162.616 16.744 162.176 17 161.504 17H155.816C154.552 17 153.92 16.368 153.92 15.104V5.36H155.984V14.84C155.984 15.16 156.032 15.368 156.128 15.464C156.224 15.544 156.424 15.584 156.728 15.584H162.008C162.296 15.584 162.504 15.52 162.632 15.392C162.76 15.264 162.824 15.048 162.824 14.744V5.36ZM171.511 17H169.447V5.36H171.511V17ZM169.399 2.984V0.92H171.583V2.984H169.399ZM181.738 6.776H178.81V14.72C178.81 15.024 178.858 15.224 178.954 15.32C179.05 15.416 179.25 15.464 179.554 15.464H181.714V17H178.642C177.378 17 176.746 16.368 176.746 15.104V6.776H174.874V5.36H176.746V3.344H178.81V5.36H181.738V6.776ZM190.729 11.192V9.776H197.449V11.192H190.729ZM211.378 9.968V4.232C211.378 3.912 211.33 3.712 211.234 3.632C211.138 3.536 210.938 3.488 210.634 3.488H203.386V10.712H210.634C210.938 10.712 211.138 10.664 211.234 10.568C211.33 10.472 211.378 10.272 211.378 9.968ZM201.298 2.072H211.546C212.81 2.072 213.442 2.704 213.442 3.968V10.232C213.442 11.496 212.81 12.128 211.546 12.128H203.386V17H201.298V2.072ZM220.979 5.36H223.475V6.824H220.667C219.627 6.824 219.107 7.424 219.107 8.624V17H217.043V5.36H219.107V6.824C219.363 5.848 219.987 5.36 220.979 5.36ZM227.703 10.328H234.807V7.52C234.807 7.216 234.759 7.016 234.663 6.92C234.567 6.824 234.367 6.776 234.063 6.776H228.447C228.143 6.776 227.943 6.824 227.847 6.92C227.751 7.016 227.703 7.216 227.703 7.52V10.328ZM227.535 5.36H234.951C236.215 5.36 236.847 5.992 236.847 7.256V11.744H227.703V14.84C227.703 15.16 227.751 15.368 227.847 15.464C227.943 15.544 228.143 15.584 228.447 15.584H233.991C234.311 15.584 234.511 15.544 234.591 15.464C234.687 15.368 234.735 15.16 234.735 14.84V13.712H236.775V15.104C236.775 16.368 236.143 17 234.879 17H227.535C226.271 17 225.639 16.368 225.639 15.104V7.256C225.639 5.992 226.271 5.36 227.535 5.36ZM248.635 14.864V12.656C248.635 12.352 248.587 12.152 248.491 12.056C248.411 11.96 248.211 11.912 247.891 11.912H242.347C241.083 11.912 240.451 11.28 240.451 10.016V7.256C240.451 5.992 241.083 5.36 242.347 5.36H248.731C249.995 5.36 250.627 5.992 250.627 7.256V8.504H248.611V7.496C248.611 7.176 248.563 6.976 248.467 6.896C248.371 6.8 248.171 6.752 247.867 6.752H243.235C242.915 6.752 242.707 6.8 242.611 6.896C242.531 6.976 242.491 7.176 242.491 7.496V9.752C242.491 10.072 242.531 10.28 242.611 10.376C242.707 10.456 242.915 10.496 243.235 10.496H248.779C250.043 10.496 250.675 11.128 250.675 12.392V15.104C250.675 16.368 250.043 17 248.779 17H242.395C241.131 17 240.499 16.368 240.499 15.104V13.856H242.539V14.864C242.539 15.168 242.579 15.368 242.659 15.464C242.755 15.56 242.963 15.608 243.283 15.608H247.891C248.211 15.608 248.411 15.56 248.491 15.464C248.587 15.368 248.635 15.168 248.635 14.864ZM262.463 14.864V12.656C262.463 12.352 262.415 12.152 262.319 12.056C262.239 11.96 262.039 11.912 261.719 11.912H256.175C254.911 11.912 254.279 11.28 254.279 10.016V7.256C254.279 5.992 254.911 5.36 256.175 5.36H262.559C263.823 5.36 264.455 5.992 264.455 7.256V8.504H262.439V7.496C262.439 7.176 262.391 6.976 262.295 6.896C262.199 6.8 261.999 6.752 261.695 6.752H257.063C256.743 6.752 256.535 6.8 256.439 6.896C256.359 6.976 256.319 7.176 256.319 7.496V9.752C256.319 10.072 256.359 10.28 256.439 10.376C256.535 10.456 256.743 10.496 257.063 10.496H262.607C263.871 10.496 264.503 11.128 264.503 12.392V15.104C264.503 16.368 263.871 17 262.607 17H256.223C254.959 17 254.327 16.368 254.327 15.104V13.856H256.367V14.864C256.367 15.168 256.407 15.368 256.487 15.464C256.583 15.56 256.791 15.608 257.111 15.608H261.719C262.039 15.608 262.239 15.56 262.319 15.464C262.415 15.368 262.463 15.168 262.463 14.864ZM284.029 14.84V4.232C284.029 3.912 283.981 3.712 283.885 3.632C283.805 3.536 283.605 3.488 283.285 3.488H277.285C276.965 3.488 276.757 3.536 276.661 3.632C276.581 3.712 276.541 3.912 276.541 4.232V14.84C276.541 15.16 276.581 15.368 276.661 15.464C276.757 15.544 276.965 15.584 277.285 15.584H283.285C283.605 15.584 283.805 15.544 283.885 15.464C283.981 15.368 284.029 15.16 284.029 14.84ZM286.093 3.968V15.104C286.093 16.368 285.461 17 284.197 17H283.309L286.069 19.328H283.453L280.741 17H276.349C275.085 17 274.453 16.368 274.453 15.104V3.968C274.453 2.704 275.085 2.072 276.349 2.072H284.197C285.461 2.072 286.093 2.704 286.093 3.968Z" fill="white"/>
</svg>
