<svg width="252" height="22" viewBox="0 0 252 22" fill="none" xmlns="http://www.w3.org/2000/svg">
<path d="M11.648 22H8.864V15.568L0.288 2.096H3.168L10.24 13.232L17.024 2.096H19.872L11.648 15.568V22ZM34.7163 19.12V9.36C34.7163 8.95467 34.6523 8.688 34.5243 8.56C34.4176 8.432 34.1509 8.368 33.7243 8.368H26.4283C26.0016 8.368 25.7243 8.432 25.5963 8.56C25.4896 8.688 25.4363 8.95467 25.4363 9.36V19.12C25.4363 19.5467 25.4896 19.824 25.5963 19.952C25.7243 20.0587 26.0016 20.112 26.4283 20.112H33.7243C34.1509 20.112 34.4176 20.0587 34.5243 19.952C34.6523 19.824 34.7163 19.5467 34.7163 19.12ZM25.2443 6.48H34.9083C36.5936 6.48 37.4363 7.32267 37.4363 9.008V19.472C37.4363 21.1573 36.5936 22 34.9083 22H25.2443C23.5589 22 22.7163 21.1573 22.7163 19.472V9.008C22.7163 7.32267 23.5589 6.48 25.2443 6.48ZM54.432 6.48H57.184V22H54.432V20.976C54.1547 21.6587 53.568 22 52.672 22H45.088C43.4027 22 42.56 21.1573 42.56 19.472V6.48H45.312V19.12C45.312 19.5467 45.376 19.824 45.504 19.952C45.632 20.0587 45.8987 20.112 46.304 20.112H53.344C53.728 20.112 54.0053 20.0267 54.176 19.856C54.3467 19.6853 54.432 19.3973 54.432 18.992V6.48ZM68.1905 6.48H71.5185V8.432H67.7745C66.3878 8.432 65.6945 9.232 65.6945 10.832V22H62.9425V6.48H65.6945V8.432C66.0358 7.13067 66.8678 6.48 68.1905 6.48ZM97.393 3.984H86.673V11.632H96.145V13.52H86.673V22H83.825V2.096H97.393V3.984ZM104.296 22H101.544V6.48H104.296V22ZM101.48 3.312V0.559999H104.392V3.312H101.48ZM114.924 6.48H122.476C124.161 6.48 125.004 7.32267 125.004 9.008V22H122.252V9.36C122.252 8.95467 122.188 8.688 122.06 8.56C121.953 8.432 121.687 8.368 121.26 8.368H114.252C113.868 8.368 113.591 8.45333 113.42 8.624C113.249 8.79467 113.164 9.08267 113.164 9.488V10.544H113.132V22H110.38V6.48H113.132V7.6C113.367 6.85333 113.964 6.48 114.924 6.48ZM133.867 20.112H140.907C141.291 20.112 141.568 20.0267 141.739 19.856C141.909 19.6853 141.995 19.3973 141.995 18.992V9.488C141.995 9.08267 141.909 8.79467 141.739 8.624C141.568 8.45333 141.291 8.368 140.907 8.368H133.867C133.461 8.368 133.195 8.432 133.067 8.56C132.939 8.688 132.875 8.95467 132.875 9.36V19.12C132.875 19.5467 132.939 19.824 133.067 19.952C133.195 20.0587 133.461 20.112 133.867 20.112ZM141.995 6.48H144.747V22H141.995V20.976C141.717 21.6587 141.131 22 140.235 22H132.651C130.965 22 130.123 21.1573 130.123 19.472V9.008C130.123 7.32267 130.965 6.48 132.651 6.48H140.235C141.131 6.48 141.717 6.82133 141.995 7.504V6.48ZM153.577 22H150.825V0.591999H153.577V22ZM179.035 19.152V16.208C179.035 15.8027 178.971 15.536 178.843 15.408C178.736 15.28 178.469 15.216 178.043 15.216H170.651C168.965 15.216 168.123 14.3733 168.123 12.688V9.008C168.123 7.32267 168.965 6.48 170.651 6.48H179.163C180.848 6.48 181.691 7.32267 181.691 9.008V10.672H179.003V9.328C179.003 8.90133 178.939 8.63467 178.811 8.528C178.683 8.4 178.416 8.336 178.011 8.336H171.835C171.408 8.336 171.131 8.4 171.003 8.528C170.896 8.63467 170.843 8.90133 170.843 9.328V12.336C170.843 12.7627 170.896 13.04 171.003 13.168C171.131 13.2747 171.408 13.328 171.835 13.328H179.227C180.912 13.328 181.755 14.1707 181.755 15.856V19.472C181.755 21.1573 180.912 22 179.227 22H170.715C169.029 22 168.187 21.1573 168.187 19.472V17.808H170.907V19.152C170.907 19.5573 170.96 19.824 171.067 19.952C171.195 20.08 171.472 20.144 171.899 20.144H178.043C178.469 20.144 178.736 20.08 178.843 19.952C178.971 19.824 179.035 19.5573 179.035 19.152ZM200.832 11.536H198.08V9.36C198.08 8.95467 198.016 8.688 197.888 8.56C197.76 8.432 197.493 8.368 197.088 8.368H190.304C189.899 8.368 189.632 8.432 189.504 8.56C189.376 8.688 189.312 8.95467 189.312 9.36V19.12C189.312 19.5467 189.376 19.824 189.504 19.952C189.632 20.0587 189.899 20.112 190.304 20.112H197.088C197.493 20.112 197.76 20.0587 197.888 19.952C198.016 19.824 198.08 19.5467 198.08 19.12V16.944H200.832V19.472C200.832 21.1573 199.989 22 198.304 22H189.088C187.403 22 186.56 21.1573 186.56 19.472V9.008C186.56 7.32267 187.403 6.48 189.088 6.48H198.304C199.989 6.48 200.832 7.32267 200.832 9.008V11.536ZM217.31 19.12V9.36C217.31 8.95467 217.246 8.688 217.118 8.56C217.011 8.432 216.745 8.368 216.318 8.368H209.022C208.595 8.368 208.318 8.432 208.19 8.56C208.083 8.688 208.03 8.95467 208.03 9.36V19.12C208.03 19.5467 208.083 19.824 208.19 19.952C208.318 20.0587 208.595 20.112 209.022 20.112H216.318C216.745 20.112 217.011 20.0587 217.118 19.952C217.246 19.824 217.31 19.5467 217.31 19.12ZM207.838 6.48H217.502C219.187 6.48 220.03 7.32267 220.03 9.008V19.472C220.03 21.1573 219.187 22 217.502 22H207.838C206.153 22 205.31 21.1573 205.31 19.472V9.008C205.31 7.32267 206.153 6.48 207.838 6.48ZM230.722 6.48H234.05V8.432H230.306C228.919 8.432 228.226 9.232 228.226 10.832V22H225.474V6.48H228.226V8.432C228.567 7.13067 229.399 6.48 230.722 6.48ZM239.687 13.104H249.159V9.36C249.159 8.95467 249.095 8.688 248.967 8.56C248.839 8.432 248.572 8.368 248.167 8.368H240.679C240.274 8.368 240.007 8.432 239.879 8.56C239.751 8.688 239.687 8.95467 239.687 9.36V13.104ZM239.463 6.48H249.351C251.036 6.48 251.879 7.32267 251.879 9.008V14.992H239.687V19.12C239.687 19.5467 239.751 19.824 239.879 19.952C240.007 20.0587 240.274 20.112 240.679 20.112H248.071C248.498 20.112 248.764 20.0587 248.871 19.952C248.999 19.824 249.063 19.5467 249.063 19.12V17.616H251.783V19.472C251.783 21.1573 250.94 22 249.255 22H239.463C237.778 22 236.935 21.1573 236.935 19.472V9.008C236.935 7.32267 237.778 6.48 239.463 6.48Z" fill="white"/>
</svg>
